<svg width="1440" height="335" viewBox="0 0 1440 335" fill="none" xmlns="http://www.w3.org/2000/svg">
<g clip-path="url(#clip0_216_1445)">
<rect width="1440" height="335" fill="#FDF8EC"/>
<path d="M122.81 179.871C151.402 164.357 186.207 180.64 198.717 206.485C211.227 232.329 200.899 263.189 175.647 275.413C150.396 287.636 119.784 276.594 107.274 250.749C94.7633 224.905 97.5584 192.094 122.81 179.871Z" fill="#FFE8AE"/>
<path d="M505.393 27.4983C629.503 -39.8421 780.575 30.8382 834.878 143.02C889.181 255.201 844.349 389.153 734.742 442.21C625.135 495.267 492.26 447.337 437.957 335.155C383.654 222.974 395.786 80.555 505.393 27.4983Z" fill="#FFE8AE"/>
<path d="M1621.08 523.073C1646.35 766.484 1146.02 948 664.277 948C182.532 948 -208 777.644 -208 567.5C-208 357.356 182.532 187 664.277 187C1146.02 187 1621.08 312.929 1621.08 523.073Z" fill="#FFD978"/>
<path d="M482.186 126.297C485.687 76.5233 528.315 104.188 532.804 107.743C559.752 129.087 551.239 145.176 543.257 151.679C531.87 160.958 478.685 176.071 482.186 126.297Z" fill="#FFD978"/>
<path d="M362.245 129.699C403.459 107.336 453.628 130.808 471.662 168.062C489.695 205.315 474.807 249.799 438.408 267.418C402.009 285.038 357.883 269.121 339.85 231.867C321.817 194.613 325.846 147.318 362.245 129.699Z" fill="#FFD978"/>
<path d="M1285.32 288.073C1238.37 264.681 1282.37 234.378 1287.63 231.445C1319.19 213.838 1331.4 228.571 1334.51 238.936C1338.95 253.726 1332.27 311.465 1285.32 288.073Z" fill="#FFD978"/>
<path d="M1315.32 318.073C1268.37 294.681 1312.37 264.378 1317.63 261.445C1349.19 243.838 1361.4 258.571 1364.51 268.936C1368.95 283.726 1362.27 341.465 1315.32 318.073Z" fill="#FFE8AE"/>
<path d="M984.211 93.5266C1036.23 100.235 1004.6 143.286 1000.6 147.781C976.555 174.761 960.189 164.845 953.85 156.073C944.807 143.557 932.187 86.8184 984.211 93.5266Z" fill="#FFE8AE"/>
</g>
<defs>
<clipPath id="clip0_216_1445">
<rect width="1440" height="335" fill="white"/>
</clipPath>
</defs>
</svg>
