<svg width="153" height="144" viewBox="0 0 153 144" fill="none" xmlns="http://www.w3.org/2000/svg">
<path d="M41.4528 24.9342C70.2396 9.3148 105.281 25.7089 117.876 51.7291C130.471 77.7494 120.073 108.819 94.6496 121.126C69.2266 133.432 38.4066 122.315 25.8111 96.2944C13.2157 70.2742 16.0298 37.2406 41.4528 24.9342Z" fill="#C72457"/>
<g clip-path="url(#clip0_340_15667)">
<path d="M50.251 73.3562C51.0302 73.9481 51.4048 74.2853 51.4498 74.3452C51.5022 74.4126 51.285 74.2403 50.9478 73.9856C50.6107 73.7158 50.1761 73.3862 49.8989 73.0715C49.6142 72.7568 49.5093 72.4721 49.5917 72.3597C49.6142 72.6145 50.2286 73.1914 50.2585 73.3562H50.251ZM69.4462 102.171C69.7234 102.696 69.4837 103.445 69.3338 102.748C69.2514 102.389 69.3263 101.939 69.4462 102.171ZM48.7526 71.4157C48.7301 71.6255 48.7826 71.7304 48.8275 71.9177C48.8949 72.0825 48.9324 72.4122 49.337 72.9966C49.0972 72.7418 48.9699 72.6295 48.835 72.4422C48.7301 72.2623 48.5128 71.9701 48.7451 71.4157H48.7526ZM53.4727 131.931C52.8958 132.59 53.3154 131.893 53.2854 131.788C53.8623 131.129 53.4427 131.826 53.4727 131.931ZM59.3392 124.019C59.2418 124.289 58.7772 125.435 59.1893 124.513C60.3057 122.708 62.5908 119.082 64.0743 117.104C64.5688 116.13 63.5723 117.516 64.1417 116.557C64.2766 116.519 64.4789 116.122 64.6737 115.725C65.0258 115.365 65.1756 115.493 65.7376 114.646C66.0672 113.829 66.4044 113.005 66.6216 112.301C66.8239 112.593 66.9663 111.717 67.7155 110.66C67.7829 110.705 68.0077 110.361 68.1126 110.308C67.7005 111.17 67.0487 111.604 67.0862 112.009C67.5057 111.402 67.8279 111.027 68.255 110.383C68.3299 109.394 69.169 108.974 69.154 107.806C69.199 107.963 69.5586 107.304 69.7534 106.42C69.9557 105.543 69.9033 104.576 69.8059 104.367C69.8059 105.206 69.7309 105.655 69.701 105.82C69.671 105.993 69.6785 105.888 69.701 105.648C69.7459 105.176 69.686 104.194 69.5211 103.82L69.8358 103.782C69.5361 101.842 69.0941 100.74 68.7944 99.8114C68.4797 98.8824 68.2175 98.1556 67.8354 97.279C67.6181 97.5413 68.4872 98.71 68.4423 99.2195C67.768 97.6986 67.6631 97.1217 66.9288 96.0203C66.9288 95.6832 67.8504 97.2266 67.2885 95.848C66.8764 95.5108 66.6891 95.2936 66.4943 95.1138C66.5467 94.4919 65.2431 92.4315 65.3405 92.896C65.1082 91.8621 64.5613 91.053 64.1867 90.1014C63.5648 89.3822 63.6472 89.8842 63.325 89.4646C63.1227 88.9102 63.1902 88.8652 63.5948 89.2923C62.6882 88.0186 62.8605 88.2059 62.3211 87.157C62.0963 87.0746 62.5533 87.8837 62.1188 87.2918C61.6692 86.61 62.1488 86.9397 61.7741 86.3328C60.8975 85.2614 61.4894 86.4227 60.3356 84.9243C60.3656 84.7445 59.7737 84.0027 59.504 83.7105C59.6089 83.6656 59.519 83.4183 59.4216 83.1711C59.7587 83.8229 60.0509 84.2425 60.5379 84.7894C60.5454 84.9168 60.418 84.8868 60.6803 85.2839L60.8751 85.149C60.1184 84.2949 58.9795 82.1222 58.0205 81.1557C58.2378 81.8075 58.987 82.2945 59.0769 82.8115C57.6609 80.8485 59.3317 83.2535 59.2268 83.3059C58.7473 82.6017 58.3427 82.0622 58.043 81.7401C59.002 82.744 57.4736 80.6687 57.4586 80.3465C57.6384 80.5863 57.8032 80.8185 57.8107 80.7061C56.7843 79.0354 56.065 78.7282 57.1065 79.867C56.4996 79.2077 57.3612 80.5338 56.6869 79.6797C55.9452 78.4884 54.3343 76.3157 53.4352 75.8586C53.1431 75.2143 54.9487 77.1997 54.0122 76.0235C53.2704 75.3941 53.0606 75.2593 52.8883 75.1469C52.716 75.0345 52.5736 74.9521 51.9143 74.5025C52.0042 74.4351 51.8619 74.2103 51.712 73.9781C52.3489 74.5999 53.3828 75.1019 52.5587 74.5775C52.2814 74.4201 51.1052 73.2214 50.9478 73.2963C51.8769 74.1954 51.4423 74.0979 51.1126 73.8732C50.6331 73.3712 50.3035 73.094 50.0487 72.8318C49.8015 72.577 49.5992 72.3597 49.4868 72.0825C49.3295 71.9701 49.322 72.3747 49.5468 72.7568C49.764 73.124 49.9738 73.4236 49.4119 72.9292C49.6816 73.049 49.3894 72.6445 49.2695 72.2249C49.2096 71.9776 49.2021 71.8727 49.2471 71.7079C49.2845 71.5506 49.3669 71.4157 49.3669 71.3408C49.0073 71.663 48.9624 71.588 48.9249 71.3408C48.9174 71.2359 48.9249 71.1085 48.8874 71.0636C48.85 71.0186 48.7301 71.0336 48.5428 71.3033C48.318 71.7978 48.4379 72.12 48.5053 72.2848C48.5952 72.4646 48.6777 72.5695 48.82 72.7793C49.0223 73.536 49.0897 73.5585 48.8575 73.3188C48.6552 73.0565 48.2506 72.5545 48.0858 71.8203C48.1682 71.7529 48.363 71.2958 48.7601 70.9512C48.9549 70.7789 49.1946 70.614 49.4718 70.5166C49.7491 70.4192 50.0787 70.4342 50.3634 70.5841C50.1012 70.3443 49.7341 70.2919 49.4643 70.3518C49.1871 70.4043 48.9774 70.5241 48.805 70.644C48.4604 70.8913 48.2506 71.1535 48.0933 71.4232C47.9359 71.6779 47.861 72.0001 47.846 72.2923C47.8235 72.5695 47.8535 72.8842 47.9884 73.2513C47.7786 72.8168 47.6737 72.4497 47.6138 72.0825C47.5613 71.6854 47.6063 71.4307 47.6138 71.2809C47.6662 70.9962 47.4939 71.116 47.5388 71.7903C47.5313 71.9327 47.5538 72.0825 47.5688 72.2099C47.5913 72.3223 47.6138 72.4197 47.6362 72.5096C47.6887 72.6969 47.7486 72.8542 47.816 72.9966C47.9434 73.2738 48.0633 73.4611 48.1682 73.6259C48.378 73.9331 48.5353 74.098 48.7526 74.2328C48.2056 73.6484 48.1232 73.3113 48.2206 73.3637C48.318 73.4012 48.6177 73.7084 48.9774 74.008C48.5653 73.9106 48.8949 74.2853 49.3295 74.6224C49.764 74.9596 50.2435 75.3117 50.281 75.514C49.6442 74.8322 48.4754 74.2028 49.4194 75.0645C49.5093 75.042 50.7305 75.9261 50.5133 75.956C50.2361 75.6938 49.2995 75.1918 50.0113 75.8137C51.0078 76.4131 49.2845 75.3641 50.2361 76.2482C50.4608 76.3381 50.7156 76.4655 51.0602 76.7427C51.0452 76.8626 50.8429 76.8401 51.21 77.2447C51.4123 77.3196 51.742 77.5744 52.259 78.1887C52.0866 78.2786 52.5062 78.8331 52.9857 79.4399C53.4652 80.0468 53.9972 80.7211 54.1245 80.9534C54.192 81.0732 54.2369 81.1706 54.2744 81.2381C54.3343 81.2905 54.4542 81.4254 54.6865 81.7251C55.3458 82.5792 56.8817 85.3139 58.0205 86.5201L57.8257 86.655C58.7847 88.0036 58.4775 87.1795 58.9121 88.2583C58.8671 87.5391 60.3656 90.7158 60.8751 91.0005C60.4405 90.3037 60.2682 89.9291 60.2382 89.6968C60.6728 90.4835 61.1897 91.3976 61.3096 91.8621C61.5119 91.6523 62.1637 93.3156 62.7257 93.8026C62.7257 93.9599 62.7182 94.0499 62.7107 94.0948C62.7481 94.1323 62.8231 94.2896 62.9804 94.7541C63.0553 95.0089 63.887 95.7806 64.0518 96.8669C64.2616 96.9718 63.9244 96.1477 64.2691 96.7621C64.2316 96.8819 64.5388 97.5562 64.7486 98.0282C64.9509 98.5078 65.0483 98.8 64.6362 98.1481C65.3629 99.8863 66.0447 101.085 65.8275 101.205C65.9473 101.265 66.1197 101.655 66.2695 102.037C66.5018 102.928 66.307 102.943 66.4418 103.782C66.5692 104.022 66.6666 104.584 66.6366 105.296C66.6141 105.993 66.4044 106.847 65.9324 107.985C65.7975 107.828 65.288 108.772 64.9808 109.019C65.1831 109.177 64.4938 110.016 64.0443 110.72C63.7371 111.32 64.2691 110.945 63.8045 111.717C63.0853 111.649 61.8266 115.066 60.935 115.65C60.9725 115.822 60.4031 116.572 60.1408 116.871C60.1783 116.991 60.3731 116.924 60.0734 117.411C59.4291 118.145 59.1968 118.152 58.9271 118.984C58.5075 118.984 57.5335 120.91 57.8332 120.595C56.7318 121.599 54.9787 124.828 53.7125 126.004C53.1056 127.023 53.6675 126.342 53.3304 126.926C52.9857 127.196 52.6935 127.36 51.9817 128.342C51.6221 129.331 51.0977 129.593 51.1951 130.185C50.4458 130.964 51.4123 129.578 50.7081 130.425C50.723 130.784 50.1536 130.949 49.7565 131.534C48.9774 133.272 49.8539 131.256 50.5432 130.912C49.6217 132.088 49.4194 132.815 48.5128 133.646C49.0073 133.587 47.861 134.366 48.0333 134.508C48.4004 134.141 48.2581 134.613 48.9549 133.999C48.0633 135.415 48.0708 134.86 47.6737 135.467C47.5238 135.699 48.2431 135.497 46.9395 136.756C47.0893 137.423 47.1642 137.445 48.363 136.651L47.7411 137.415C48.6627 136.621 48.9174 137.026 49.4119 136.246C48.7076 136.966 50.1461 135.003 48.85 136.426C49.2246 135.984 49.7116 135.332 49.8315 135.325C49.3295 136.299 49.6517 135.879 49.5917 136.396C49.9813 135.969 50.3559 135.579 50.6406 135.34C50.753 135.295 50.7755 135.43 51.0752 135.055C51.0302 134.815 51.1201 134.441 51.6671 133.646C52.0866 133.504 50.9553 134.808 51.3749 134.665C51.9518 134.014 52.3863 133.519 52.5886 133.115C52.1915 133.624 52.0342 133.474 52.4013 132.965C52.9333 133.279 54.7839 130.08 55.8178 129.376C55.7728 128.949 56.9791 127.825 57.0166 127.196C57.0765 127.375 57.4886 126.851 57.5635 126.986C58.6574 125.577 58.6499 124.701 59.3616 124.034L59.3392 124.019Z" fill="#9CBFB3"/>
<path d="M54.2603 81.2383C54.0879 81.081 54.5 81.7253 54.2603 81.2383V81.2383Z" fill="#9CBFB3"/>
<path d="M51.8759 77.8816C52.1381 78.3461 51.4638 78.0239 51.0742 77.3496C51.2615 77.4021 51.7186 77.8666 51.8759 77.8816Z" fill="#9CBFB3"/>
<path d="M48.7514 71.416C48.7289 71.6258 48.7814 71.7307 48.8263 71.918C48.8938 72.0828 48.9312 72.4125 49.3358 72.9969C49.0961 72.7421 48.9687 72.6298 48.8338 72.4425C48.7289 72.2626 48.5117 71.9704 48.7439 71.416H48.7514Z" fill="#9CBFB3"/>
<path d="M53.4728 131.93C52.8959 132.59 53.3154 131.893 53.2855 131.788C53.8624 131.129 53.4428 131.826 53.4728 131.93Z" fill="#9CBFB3"/>
<path d="M69.446 102.179C69.7232 102.704 69.4834 103.453 69.3336 102.756C69.2512 102.396 69.3261 101.947 69.446 102.179Z" fill="#9CBFB3"/>
<path d="M55.9987 83.7553C56.8678 85.2388 55.1595 82.9536 55.0996 82.609C55.2195 82.3393 55.7365 83.8752 55.9987 83.7553Z" fill="#9CBFB3"/>
<path d="M48.4169 70.4941C48.0648 70.5091 48.7615 70.7863 48.4169 70.4941V70.4941Z" fill="#9CBFB3"/>
<path d="M62.6873 94.0945C62.6349 94.042 62.6649 94.2294 62.6873 94.0945V94.0945Z" fill="#9CBFB3"/>
<path d="M66.0819 93.6458C65.947 93.5709 65.5649 92.7917 65.4675 92.8367C65.1903 92.3197 65.3926 92.3946 65.4376 92.2822C65.8496 92.9865 65.7972 93.0689 66.0894 93.6458H66.0819Z" fill="#9CBFB3"/>
<path d="M50.2511 73.3567C51.0302 73.9486 51.4049 74.2857 51.4498 74.3457C51.5023 74.4131 51.285 74.2408 50.9478 73.986C50.6107 73.7163 50.1761 73.3867 49.8989 73.072C49.6142 72.7573 49.5093 72.4726 49.5917 72.3602C49.6142 72.615 50.2286 73.1919 50.2585 73.3567H50.2511Z" fill="#9CBFB3"/>
<path d="M57.218 71.7834C58.6415 72.8473 58.3943 72.7799 57.8324 72.3229C57.2704 71.8733 56.3039 71.1616 56.2964 70.8619C56.5362 71.1241 57.203 71.6186 57.218 71.7834ZM72.7045 75.9716C72.6521 75.5296 73.1091 75.095 73.0267 75.627C72.9742 75.9042 72.727 76.1739 72.7045 75.9716ZM54.798 70.8094C55.1576 70.9143 55.2625 70.712 56.3039 71.5737C55.7345 71.229 55.6596 71.3938 54.798 70.8094ZM78.2713 48.1004C78.6833 47.3661 78.4286 48.1004 78.4885 48.1978C78.1064 48.917 78.3237 48.1978 78.2713 48.1004ZM75.7464 56.3344C75.7239 56.0871 75.6639 55.0083 75.6714 55.8849C75.3867 57.7055 74.9297 61.3317 74.4727 63.3696C74.4577 64.2987 74.7424 62.8751 74.6525 63.8192C74.5476 63.8941 74.5401 64.2687 74.5401 64.6433C74.3828 65.0404 74.188 64.9954 74.0531 65.8346C74.1056 66.5763 74.158 67.3255 74.2554 67.9474C73.9482 67.7826 74.188 68.5093 73.9482 69.5657C73.8733 69.5582 73.8059 69.8804 73.7309 69.9478C73.7684 69.1836 74.158 68.6217 73.9632 68.3145C73.8358 68.9139 73.7085 69.326 73.5736 69.9179C73.8883 70.6971 73.2889 71.1691 73.5811 71.9932C73.4088 71.7834 72.9218 74.0461 73.0117 74.3758C73.5961 72.0906 73.0641 74.2109 73.169 74.8178L72.8543 74.7579C72.3823 77.515 72.0602 78.4066 71.6631 79.8526C72.0152 79.8226 71.9403 78.6464 72.2325 78.3392C72.0077 79.6503 71.708 80.0324 71.6331 81.0963C71.4308 81.2836 71.6481 79.8751 71.251 80.9765C71.3709 81.4035 71.3559 81.6058 71.3934 81.8156C71.1911 81.9504 70.9663 82.4 70.794 82.6997C70.6291 83.0069 70.5168 83.1867 70.6366 83.1642C70.3594 83.2466 70.1871 83.2691 70.0298 83.2841C69.8724 83.2991 69.6626 83.2916 69.4229 83.1867C68.9209 83.2841 69.1232 83.5013 68.7935 83.4864C68.4564 83.2691 68.5013 83.1942 68.8685 83.1792C68.389 83.0968 68.1942 83.0143 68.0368 82.9244C67.8795 82.8345 67.7596 82.7371 67.4599 82.4899C67.2726 82.5423 67.7746 82.9244 67.3325 82.6922C66.8605 82.385 67.2876 82.415 66.913 82.1153C66.5009 81.8755 66.4485 81.9055 66.3511 81.928C66.2612 81.9355 66.1263 81.9355 65.5869 81.4709C65.6093 81.3211 65.0774 80.8416 64.8526 80.6243C64.95 80.5644 64.8826 80.3771 64.8077 80.1823C65.0699 80.6768 65.3246 80.9839 65.7592 81.3061C65.7667 81.4035 65.6543 81.426 65.9015 81.6732L66.0664 81.5009C65.7217 81.2761 65.2947 80.7592 64.8976 80.1823C64.493 79.6054 64.0959 78.9685 63.6988 78.5639C63.8262 79.1259 64.4705 79.4855 64.5155 79.9125C63.3841 78.3542 64.7103 80.2797 64.6129 80.3171C64.2158 79.7777 63.9011 79.3356 63.6464 79.0734C64.4405 79.8901 63.2343 78.1818 63.2643 77.8747C63.3991 78.0844 63.534 78.2792 63.549 78.1743C62.7997 76.7358 62.1554 76.4436 62.9945 77.4551C62.5075 76.8782 63.1444 78.047 62.6199 77.2903C62.3352 76.7658 61.9081 76.0091 61.4062 75.3273C60.9042 74.6455 60.3498 74.0761 59.9602 73.8813C59.7354 73.2969 61.2713 75.0501 60.4921 74.0086C59.8403 73.4617 59.6605 73.3568 59.5031 73.2594C59.3533 73.1695 59.2259 73.0946 58.649 72.7275C58.7389 72.66 58.6265 72.4577 58.4992 72.2555C59.0386 72.7874 59.9677 73.192 59.2409 72.7499C58.9862 72.6226 57.9972 71.5886 57.8473 71.6711C58.6415 72.4428 58.2444 72.3828 57.9597 72.203C57.1581 71.3564 56.731 71.1016 55.9293 70.5922C55.6821 70.5697 56.1091 70.9593 56.4163 71.2815C56.731 71.6036 56.9408 71.8434 56.3339 71.4837C56.6036 71.5437 56.3114 71.199 55.8694 70.8544C55.4348 70.5023 54.8654 70.1651 54.6706 70.1576C55.6146 70.9968 53.9139 70.2775 54.6407 70.9893C55.3075 71.4463 55.3749 71.3564 55.7495 71.5512C56.4538 72.675 55.7345 71.6336 54.8055 71.4763C54.8504 71.289 54.1162 70.3449 53.2246 70.1576C54.0338 70.7046 54.3634 71.0942 54.5807 71.4013C54.798 71.716 54.9029 71.9707 55.1876 72.3229C54.3485 71.6036 53.8914 71.8359 54.4983 71.9408C55.3674 72.4128 55.4723 72.69 55.8169 72.8024C54.9703 72.1206 55.4198 72.1805 56.0192 72.5477C55.3449 72.5926 57.0382 73.4018 57.0681 73.7689C56.5137 73.1545 55.5922 72.7724 56.3189 73.4242C56.4013 73.3943 57.4502 74.121 57.2405 74.1585C57.0082 73.9412 56.1915 73.5516 56.7909 74.0686C57.6525 74.5406 56.1691 73.7164 56.9633 74.4507C57.1581 74.5181 57.3903 74.608 57.675 74.8328C57.6525 74.9452 57.4652 74.9377 57.7649 75.2823C57.9447 75.3348 58.222 75.5446 58.6415 76.0615C58.4767 76.1514 58.7989 76.616 59.1585 77.1329C59.5181 77.6499 59.9377 78.2343 60.0201 78.4441C60.0651 78.549 60.1025 78.6389 60.125 78.6988C60.1699 78.7438 60.2673 78.8636 60.4546 79.1334C60.7169 79.5155 61.1364 80.3246 61.6684 81.1787C62.1929 82.0329 62.9046 82.9319 63.549 83.4039L63.3766 83.5688C63.9535 84.1382 64.1633 84.2131 64.2757 84.2805C64.3956 84.348 64.433 84.4004 64.8152 84.8574C64.6728 84.5203 65.1973 85.0073 65.954 85.4943C66.7032 85.9888 67.7521 86.3784 68.0668 86.281C67.1977 86.0562 66.8306 85.794 66.6732 85.6142C67.4824 86.0862 68.5763 86.3784 69.1457 86.5357C69.1082 86.3859 69.6027 86.4608 70.2845 86.3634C70.9738 86.2885 71.8279 85.8614 72.0976 85.4568C72.2849 85.4119 72.3898 85.3744 72.4498 85.3669C72.4872 85.307 72.6895 85.1646 73.1316 84.7376C73.2514 84.6177 73.4238 84.2356 73.6036 83.7935C73.7834 83.344 73.9707 82.842 74.2854 82.4075C74.2105 82.1902 73.8658 82.9844 74.0531 82.3326C74.3004 82.1977 74.8023 79.7627 74.66 81.1563C75.1994 79.5155 75.162 78.2418 75.4317 78.2643C75.3718 78.1594 75.4167 77.7773 75.4617 77.4026C75.664 76.5635 75.8587 76.6384 76.0461 75.7918C75.9711 75.2374 76.4731 73.5142 76.5855 71.1916C76.7728 71.2889 76.9152 70.2925 77.0875 69.9928C76.8402 69.9254 77.1174 69.0338 77.2373 68.3295C77.2673 67.7526 76.9451 68.2246 77.035 67.4604C77.7168 67.2731 77.3722 64.1638 77.9116 63.4146C77.8067 63.2947 77.9866 62.5155 78.084 62.1933C78.0015 62.1184 77.8517 62.2308 77.9116 61.7513C78.1739 60.9646 78.3762 60.8822 78.2488 60.1479C78.6309 60.0131 78.6684 58.2075 78.5335 58.5446C79.0954 57.4208 79.3127 54.3639 80.0394 53.1202C80.1968 52.1537 79.9495 52.8355 80.0394 52.2886C80.2567 51.9964 80.4665 51.8016 80.7587 50.85C80.7362 49.9735 81.1333 49.7262 80.8636 49.2692C81.3131 48.6024 80.8486 49.7487 81.2382 49.0519C81.1183 48.7672 81.5903 48.6248 81.8076 48.2577C82.1822 47.0889 81.7552 48.3926 81.2532 48.6773C81.7851 47.8082 81.8975 47.2762 82.6318 47.0515C82.4519 46.9541 82.5868 46.8941 82.7591 46.8417C82.9314 46.7892 83.1262 46.7743 83.0888 46.6694C82.7741 46.7368 82.9839 46.4221 82.3545 46.5645C82.8191 46.2048 83.0588 46.2048 83.1862 46.2198C83.321 46.2423 83.381 46.2947 83.5983 46.2273C83.6807 46.2048 83.6207 46.0999 83.6807 46.0025C83.7331 45.9276 83.9879 45.8078 84.5348 46.0775C84.7521 45.8677 84.8944 45.7628 84.8495 45.598C84.797 45.4406 84.5797 45.1784 83.9279 44.9312C84.2426 44.9386 84.5498 44.9911 84.857 45.0885C84.34 44.8113 84.0703 44.6614 83.8305 44.5266C83.5908 44.4067 83.3585 44.3243 82.8865 44.4741C83.4184 44.4217 83.0438 44.5341 82.8191 44.6464C82.5943 44.7813 82.4819 44.8038 83.4334 44.7064C82.8415 44.7364 82.1148 45.066 82.0099 45.0211C82.4519 44.7064 82.5943 44.639 82.6318 44.5565C82.6767 44.4891 82.6318 44.4292 82.834 44.2344C82.1897 44.3393 81.6428 44.5491 81.2607 44.6839C81.1258 44.6914 81.1633 44.549 80.7137 44.8487C80.6913 45.1035 80.414 45.4481 79.8296 46.2198C79.6199 46.2873 79.7997 45.9951 80.017 45.7104C80.2342 45.4256 80.5114 45.1484 80.2717 45.1934C79.5 45.8003 79.0954 46.3622 78.9156 46.7892C79.2902 46.2348 79.4475 46.3921 79.1179 46.9166C78.8407 46.7743 78.2937 47.5909 77.9191 48.5125C77.522 49.4415 77.2448 50.423 76.8702 50.8575C77.05 51.2097 76.3682 52.4759 76.5705 53.0078C76.4506 52.8805 76.2708 53.4274 76.1435 53.3375C75.7089 54.8209 76.0535 55.5327 75.7014 56.2969L75.7464 56.3344Z" fill="#9CBFB3"/>
<path d="M60.1463 78.7138C60.0039 78.579 60.3111 79.1409 60.1463 78.7138V78.7138Z" fill="#9CBFB3"/>
<path d="M58.3573 75.8297C58.5521 76.2268 57.9677 75.9871 57.668 75.4102C57.8328 75.4401 58.2074 75.8297 58.3573 75.8297Z" fill="#9CBFB3"/>
<path d="M54.7969 70.8096C55.1565 70.9145 55.2614 70.7122 56.3028 71.5738C55.7334 71.2291 55.6585 71.394 54.7969 70.8096Z" fill="#9CBFB3"/>
<path d="M78.2708 48.1012C78.6829 47.3669 78.4282 48.1012 78.4881 48.1986C78.106 48.9178 78.3233 48.1986 78.2708 48.1012Z" fill="#9CBFB3"/>
<path d="M72.7034 75.9718C72.651 75.5298 73.108 75.0952 73.0256 75.6272C72.9731 75.9044 72.7259 76.1741 72.7034 75.9718Z" fill="#9CBFB3"/>
<path d="M61.5569 80.9838C62.3136 82.3399 60.7777 80.2646 60.7852 79.9424C60.92 79.6952 61.2797 81.0962 61.5569 80.9838Z" fill="#9CBFB3"/>
<path d="M54.0268 71.2663C54.0043 71.5585 54.2591 70.8767 54.0268 71.2663V71.2663Z" fill="#9CBFB3"/>
<path d="M72.4948 85.3825C72.4349 85.4649 72.6597 85.345 72.4948 85.3825V85.3825Z" fill="#9CBFB3"/>
<path d="M70.6888 82.5645C70.7263 82.6843 70.4416 83.0065 70.5165 83.0589C70.3292 83.2238 70.2992 83.0589 70.2168 83.0065C70.4041 82.8117 70.5015 82.8342 70.6888 82.5645Z" fill="#9CBFB3"/>
<path d="M57.2184 71.7839C58.642 72.8478 58.3947 72.7803 57.8328 72.3233C57.2709 71.8738 56.3044 71.162 56.2969 70.8623C56.5366 71.1245 57.2034 71.619 57.2184 71.7839Z" fill="#9CBFB3"/>
<path d="M83.4716 59.7203C83.1944 62.6198 83.2469 63.8561 83.2169 64.0958C83.2094 64.3281 83.1645 63.5639 83.2169 62.3951C83.2843 60.05 83.8987 56.0941 84.2433 55.5546C83.9811 56.6785 83.629 59.3757 83.4791 59.7278L83.4716 59.7203ZM102.412 64.388C102.127 65.864 101.266 67.4823 101.775 65.6842C102.045 64.7401 102.539 63.7287 102.412 64.388ZM84.1534 51.2091C84.071 52.4528 84.2508 52.3704 83.4567 56.8583C83.7414 54.6481 83.5391 54.723 84.1534 51.2091ZM89.0834 123.405C87.7797 125.592 88.8586 123.509 88.8736 123.285C90.1622 121.089 89.1058 123.18 89.0834 123.405ZM101.933 97.6537C101.805 98.4853 100.779 102.022 101.633 99.1296C102.135 97.5937 102.622 95.6383 103.034 93.503C103.454 91.3677 103.821 89.0525 104.293 86.7749C105.154 82.2496 107.065 77.8891 108.503 74.6149C109.597 71.678 107.634 76.1883 108.825 73.2139C109.028 72.9741 109.47 71.7829 109.934 70.6216C110.609 69.3928 110.729 69.5052 112.002 66.9803C112.969 64.7326 114.1 62.6198 115.194 60.8666C115.171 61.0315 115.269 60.9865 115.449 60.7393C115.621 60.477 115.891 60.0874 116.078 59.2708C116.123 59.061 116.153 58.8138 116.138 58.4916C116.123 58.1919 116.033 57.7648 115.771 57.3752C115.643 57.1804 115.471 57.0081 115.291 56.8733C115.119 56.7459 114.917 56.626 114.699 56.5511C114.265 56.4012 113.883 56.4087 113.598 56.4387C113.298 56.4687 113.111 56.5211 112.864 56.5661C112.624 56.6035 112.392 56.6785 112.152 56.7534C111.665 56.8957 111.178 57.1055 110.684 57.3378C110.661 57.3003 110.361 57.4427 110.024 57.615C109.71 57.7948 109.387 57.9821 109.215 58.087C110.399 57.143 111.807 56.596 112.991 56.4312C113.276 56.3863 113.561 56.3338 114.018 56.3488C114.445 56.3488 115.059 56.5661 115.434 56.9032C115.861 57.2554 116.1 57.7873 116.168 58.1544C116.25 58.5365 116.243 58.8212 116.243 59.046C116.28 58.8063 116.295 58.5141 116.243 58.1919C116.19 57.8622 116.056 57.4876 115.816 57.1729C115.703 57.0156 115.561 56.8808 115.419 56.7609C115.276 56.656 115.141 56.5586 114.977 56.4762C114.654 56.3188 114.332 56.2514 114.078 56.2289C113.553 56.1915 113.253 56.2589 112.991 56.2964C112.714 56.3413 112.437 56.3938 112.175 56.4687C111.103 56.7534 110.092 57.2329 109.103 57.9521C108.061 58.9936 107.245 59.8552 106.435 60.7393C105.634 61.6308 104.907 62.5599 104.27 63.7362C104.383 63.4215 103.191 64.845 101.903 66.4709C101.58 66.8829 101.251 67.3025 100.936 67.7071C100.779 67.9094 100.621 68.1117 100.472 68.3065C100.329 68.4938 100.247 68.5912 100.209 68.6211C100.119 68.5387 100.419 68.8909 100.464 69.0107C100.547 69.1606 100.569 69.2505 100.576 69.2879C100.576 69.2879 100.576 69.3104 100.576 69.3029V69.1531C100.576 69.2055 100.576 69.2505 100.569 69.3104C100.569 69.3704 100.532 69.4303 100.547 69.4078C100.539 69.4228 100.584 69.3479 100.621 69.3254C100.689 69.2505 100.734 69.243 100.831 69.1756C100.921 69.1231 100.989 69.1006 101.086 69.0557C101.176 69.0182 101.273 68.9883 101.236 69.0032L101.146 69.0332L100.981 69.1081C100.899 69.1381 100.786 69.2205 100.734 69.243C100.674 69.2805 100.614 69.3479 100.599 69.3554C100.584 69.3704 100.569 69.3853 100.562 69.4003C100.562 69.4003 100.591 69.3404 100.599 69.213V69.1681V69.1606C100.599 69.2205 100.599 68.9957 100.599 69.3029C100.599 69.2954 100.599 69.273 100.584 69.2355C100.562 69.1606 100.509 69.0332 100.404 68.8834C100.239 68.6511 100.299 68.7335 100.314 68.711C100.352 68.6811 100.419 68.6211 100.487 68.5387C100.839 68.1042 101.063 67.827 101.191 67.6696C101.453 67.3549 101.303 67.5497 100.966 67.9993C100.809 68.2091 100.539 68.5762 100.419 68.7185L100.352 68.786C100.352 68.786 100.344 68.786 100.352 68.8009C100.382 68.8459 100.419 68.8983 100.442 68.9358C100.494 69.0182 100.532 69.0931 100.554 69.1531C100.606 69.2655 100.606 69.3254 100.606 69.3104V69.1531V69.1606V69.213C100.606 69.243 100.606 69.273 100.599 69.3029C100.584 69.3704 100.591 69.3629 100.576 69.4003C100.532 69.4678 100.666 69.2355 101.034 69.0857L101.108 69.0482C101.108 69.0482 101.108 69.0482 101.116 69.0482C101.116 69.0482 101.116 69.0257 101.101 69.0107C101.093 68.9808 101.078 68.9433 101.071 68.8983C101.034 68.711 101.041 68.4713 101.041 68.314L101.356 68.3814C101.363 68.2915 101.483 67.9019 101.558 67.6471C101.64 67.3624 101.723 67.0852 101.798 66.8155C101.955 66.2761 102.105 65.7516 102.255 65.2496C102.547 64.2531 102.817 63.3316 103.064 62.4775C103.573 60.7692 104 59.3307 104.39 58.0196C104.78 56.7084 105.139 55.5396 105.484 54.3708C105.656 53.7864 105.836 53.2095 106.008 52.6102L106.143 52.1606C106.196 51.9808 106.248 51.7785 106.293 51.5687C106.375 51.1417 106.458 50.6697 106.361 50.0178C106.331 50.2651 106.323 50.857 106.188 51.4414C106.046 52.0782 105.874 52.5727 105.724 53.1646C105.409 54.3259 105.072 55.5921 104.787 56.184C105.109 55.0601 105.372 54.1236 105.611 53.292C105.731 52.8799 105.851 52.4903 105.956 52.1157C106.083 51.6736 106.196 51.2091 106.203 50.6397C106.203 50.355 106.181 50.0328 106.076 49.6807C105.971 49.3285 105.761 48.9389 105.454 48.6393C105.379 48.5643 105.297 48.4969 105.214 48.4295C105.109 48.3546 104.982 48.2796 104.855 48.2197C104.592 48.0773 104.353 48.0474 104.098 48.0174C103.843 47.9949 103.671 48.0324 103.454 48.0549C103.274 48.0923 103.124 48.1448 102.959 48.2047C102.39 48.437 102 48.7367 101.618 49.0663C101.243 49.396 100.899 49.7556 100.569 50.1827C100.194 50.5198 100.884 49.5233 101.461 48.9839C101.73 48.7067 101.97 48.5194 101.805 48.5943C101.648 48.6767 101.108 48.9914 100.262 49.9204C99.8422 50.6097 99.4976 51.2241 99.3103 51.9209C99.2054 52.3854 99.1155 52.76 99.0481 53.1196C98.651 53.8014 97.9917 55.8543 97.5646 57.5625C97.13 59.2633 96.8304 60.6119 97.0626 60.0275C96.5382 61.3686 96.0961 62.6723 95.6016 63.946C95.3469 64.6128 95.1296 65.1747 94.8374 65.6767C94.5527 66.1712 94.2006 66.6057 93.9159 66.7631C93.7136 66.9653 93.6836 66.9728 93.6162 67.0253C93.5487 67.0627 93.5038 67.1077 93.4738 67.1302C93.4064 67.1826 93.3914 67.28 93.1217 67.1302C92.8744 66.838 92.822 66.5308 92.8669 66.5308C92.9044 66.4933 93.0767 66.7631 93.324 66.8829C93.1816 66.793 93.0318 66.5683 92.9419 66.366C92.8445 66.1487 92.7995 65.9314 92.777 65.7516C92.7396 65.4219 92.777 65.0848 92.852 64.7776C92.9194 64.4629 93.0168 64.1632 93.1666 63.7437C93.309 63.3166 93.5338 62.7847 93.8035 61.8406C93.8035 61.5035 93.6237 62.1029 93.4813 62.4325C93.339 62.7547 93.2865 62.927 93.5712 61.7807C93.8334 60.5445 93.9084 60.4171 94.0058 60.2523C94.0957 60.1024 94.1781 59.99 94.3954 59.0011C94.74 57.0681 94.6951 57.0081 94.6726 56.7609C94.6726 56.5211 94.6426 56.0641 95.3394 53.5092C95.4518 53.3519 95.699 52.6251 95.9463 51.7411C96.201 50.8645 96.3883 49.7856 96.4033 49.1113C96.5007 49.1862 96.688 48.3546 96.6056 47.3656C96.733 48.7217 96.5232 49.7631 96.3134 50.7221C96.0961 51.6811 95.8264 52.5802 95.5642 53.5842C95.4218 53.8614 95.3918 53.5767 95.0322 54.8578L95.2645 54.9178C95.4293 54.1461 95.729 53.202 96.0886 52.0108C96.4258 50.827 96.8528 49.381 96.718 47.6503C96.6505 46.7962 96.3883 45.8896 95.9388 45.1104C95.8339 44.9156 95.6541 44.6309 95.3918 44.3687C95.1296 44.0989 94.7026 43.7993 94.1706 43.6944C93.6461 43.582 93.1891 43.6719 92.8595 43.7768C92.5298 43.8892 92.29 44.024 92.0877 44.1439C90.6567 45.0355 89.7951 46.3691 89.3681 47.418C89.93 46.459 90.6792 45.2977 91.7506 44.5185C91.8855 44.4211 92.0128 44.3312 92.1477 44.2338C92.2975 44.1364 92.4773 44.039 92.6871 43.9491C92.9044 43.8592 93.1591 43.7768 93.4738 43.7468C93.781 43.7168 94.1556 43.7618 94.4853 43.8892C95.1446 44.1589 95.4518 44.571 95.6541 44.8632C95.759 45.028 95.8189 45.1479 95.8639 45.2602C95.9163 45.3726 95.9613 45.485 95.9987 45.5974C95.8564 45.3352 95.7739 45.1329 95.5567 44.8332C95.3544 44.556 95.0622 44.2563 94.6426 44.054C94.223 43.8367 93.736 43.7993 93.4064 43.8442C93.0692 43.8892 92.837 43.9791 92.6497 44.054C92.2825 44.2188 92.1177 44.3462 91.9829 44.4436C91.848 44.541 91.7656 44.6009 91.7131 44.6384C91.6157 44.7133 91.6757 44.6758 91.833 44.5635C92.0128 44.4586 92.2076 44.2713 92.7471 44.054C93.0168 43.9566 93.3914 43.8367 93.8934 43.8892C94.4104 43.9341 94.9048 44.2338 95.1821 44.511C95.4593 44.7882 95.6466 45.0954 95.7365 45.2902C95.8414 45.5075 95.9613 45.7098 96.0287 45.9196C96.3583 46.7512 96.3808 47.418 96.3583 47.3955C96.2535 46.6313 96.0062 45.8971 95.6466 45.2902C95.4743 44.9755 95.1895 44.526 94.5902 44.2038C94.2905 44.0465 93.9084 43.9716 93.6087 43.9866C93.3015 44.0015 93.0468 44.069 92.8445 44.1439C92.4324 44.3087 92.2001 44.481 91.9829 44.6384C91.7506 44.7882 91.5558 44.9606 91.376 45.1329C91.0089 45.47 90.7316 45.8072 90.5144 46.1219C91.2186 45.1479 91.5483 44.9456 91.361 45.0355C91.1962 45.1329 90.6342 45.6274 90.1173 46.3616C89.0459 47.8451 88.5439 50.0778 88.3791 50.4524C88.5589 49.5383 88.8436 48.6617 88.6938 48.9165C88.2068 50.4224 88.0419 51.6437 87.922 52.5577C87.8097 53.4793 87.7572 54.0712 87.7422 54.3858C87.7123 54.9852 87.8546 54.4607 88.0794 52.2281C87.8246 54.8129 88.5439 50.2651 88.1468 53.4043C87.8471 55.3673 87.3227 58.1619 86.7008 60.7692C86.3936 62.0729 86.0715 63.3241 85.7942 64.418C85.5095 65.4669 85.2698 66.5533 85.1799 66.838C85.0975 66.9204 85.0675 66.9129 85.0525 66.8979C85.0375 66.8754 85.0525 66.8455 85.075 66.7631C85.105 66.6806 85.1499 66.5383 85.2173 66.3135C85.2848 66.0588 85.3597 65.7816 85.4271 65.5268C85.7043 64.4629 85.9066 63.6837 85.2698 65.6392C85.105 66.3285 84.9851 66.7031 84.9326 66.7855C84.8877 66.8754 84.9401 66.8455 84.8952 66.8904C84.7978 66.9429 84.6105 66.9204 84.4906 66.8904C84.3632 66.853 84.2284 66.8005 84.056 66.6582C83.9062 66.5233 83.599 66.1712 83.4492 65.2346C83.5615 65.2721 83.5765 64.6577 83.6664 63.9085C83.644 64.5154 83.6739 65.1148 83.7788 65.5568C83.8762 66.0063 84.0485 66.2761 84.1759 66.4184C84.2733 66.5083 84.3557 66.5308 84.3482 66.5158C84.3482 66.5083 84.3183 66.4858 84.2733 66.4484C84.2508 66.4259 84.1534 66.336 84.056 66.1712C83.9811 66.0663 83.8687 65.804 83.8088 65.362C83.7489 64.9349 83.7414 64.2981 83.7638 63.6762C83.7788 62.4475 83.8912 61.2712 83.8238 61.1588C83.6365 62.897 83.584 63.4964 83.5091 63.5414C83.4417 63.5863 83.3817 63.0619 83.3967 62.5224C83.569 60.6643 83.7638 59.3457 83.9287 58.102C84.0935 56.8583 84.2583 55.697 84.4906 54.1536C84.4906 53.4343 84.086 55.2849 83.8013 56.7309C83.5166 58.1769 83.3068 59.2258 83.5615 56.8808C83.5541 57.7349 83.8537 56.2739 84.1909 54.4533C84.528 52.6401 84.8877 50.4599 84.8877 49.8905C83.9811 54.0187 84.7229 47.8526 83.9362 51.1791C83.4417 53.9363 83.569 53.9738 83.3817 55.4198C82.2654 59.5705 83.2394 55.5546 83.3817 52.5277C83.5915 52.2955 84.6779 48.5718 84.7828 45.5599C84.2658 48.8715 83.7938 50.5048 83.4567 51.7186C83.1045 52.9323 82.8198 53.704 82.4377 55.2624C83.1944 51.3739 82.9397 50.3924 82.8273 52.4303C82.3253 55.9592 82.0556 56.8433 82.0032 58.0945C82.6175 54.176 82.61 55.682 82.3178 58.1395C82.2204 57.2179 82.0256 58.4017 81.8758 59.9376C81.711 61.481 81.6735 63.3915 81.5686 63.8785C81.6435 62.3876 81.7185 60.7842 81.7634 59.9451C81.7934 59.1434 81.7035 59.1509 81.5012 60.9491C81.5237 61.0315 81.4712 62.2377 81.4712 63.3765C81.4712 63.9535 81.4712 64.4854 81.4787 64.89C81.4862 65.2871 81.4937 65.5268 81.4412 65.4069C81.3738 64.7476 81.3438 63.6538 81.2989 63.0469C81.2764 62.455 81.194 62.3651 81.1715 63.8785C81.194 64.3281 81.2165 64.6352 81.2315 64.83C81.2464 65.0248 81.2614 65.0998 81.2539 65.0923C81.2539 65.0698 81.209 64.7476 81.1715 64.4255C81.1341 64.1183 81.0966 63.8411 81.0666 63.886C81.0441 63.9535 80.9692 64.2681 81.0441 65.4369C81.1266 65.8415 81.2315 66.306 81.4637 66.8904C81.5836 67.1826 81.7409 67.4973 81.9732 67.827C82.2279 68.1941 82.5651 68.5237 82.9846 68.7935C83.1045 68.9283 82.9846 68.9283 83.127 69.0632C83.1944 69.1306 83.3293 69.2355 83.614 69.3629C83.9062 69.4753 84.3482 69.6701 85.1499 69.6101C85.4196 69.5577 85.7942 69.4678 86.2063 69.213C86.6259 68.9658 87.038 68.5312 87.2852 68.0517C87.5474 67.5722 87.6748 67.0777 87.8022 66.6507C87.937 66.1936 88.0944 65.6692 88.2667 65.0773C88.409 65.2646 89.0684 63.2117 89.6003 60.8966C90.1547 58.5815 90.5518 55.9967 90.6942 55.2325C90.7766 54.8204 90.8365 54.5057 90.8815 54.2734C90.904 54.0412 90.9489 53.4868 91.0988 52.4154C91.2112 51.6511 91.3985 50.5573 91.8105 49.4409C92.0128 48.8865 92.2825 48.3471 92.6272 47.89C92.7995 47.6653 92.9868 47.4555 93.2041 47.2757C93.309 47.1858 93.4139 47.0959 93.5338 47.0209C93.6461 46.946 93.7885 46.8486 93.811 46.8486C93.8484 46.8261 93.7885 46.8936 93.5412 46.8711C93.279 46.8486 93.0692 46.6838 93.0543 46.6538C93.0393 46.6388 93.0468 46.6388 93.0543 46.6613L93.1367 46.8186C93.2041 46.931 93.2491 47.0584 93.294 47.1783C93.4813 47.6653 93.5038 48.2497 93.4588 48.8715C93.3539 50.1302 92.8969 51.5013 92.6122 52.6776L92.3799 52.6102C91.6682 55.0451 91.6532 55.652 91.5708 56.0491C91.5108 56.4537 91.4434 56.6635 90.9789 58.2968C91.1587 57.8547 91.1362 58.1544 90.9939 58.8737C90.8365 59.578 90.6417 60.7917 90.3046 61.7882C89.9599 62.912 89.3006 64.403 89.5029 66.1712C89.6003 66.9953 89.885 67.6996 90.2222 68.254C90.5668 68.8084 90.9864 69.1831 91.2711 69.3554C90.4619 68.6811 90.1173 67.9468 89.8925 67.325C89.6752 66.6956 89.6078 66.1412 89.6078 65.6542C89.6303 64.6727 89.8176 64.2007 89.9375 63.8486C89.8401 64.2157 89.7651 64.6203 89.7202 65.0548C89.6752 65.4969 89.6902 66.0063 89.7651 66.4634C89.9225 67.3924 90.2971 68.299 91.0313 69.0557C91.7356 69.8199 92.9194 70.247 93.826 70.157C94.785 70.1046 95.5117 69.7 95.9388 69.4153C95.8189 69.4153 96.186 69.1306 96.6131 68.6136C97.0476 68.0967 97.5047 67.3699 97.8718 66.5533C98.2464 65.7141 98.5011 64.92 98.7559 64.1408C98.9956 63.3691 99.1829 62.6498 99.2728 62.1178C99.4601 61.7507 99.5725 61.5409 99.625 61.451C99.6549 61.2937 99.8048 60.7917 100.277 59.4056C100.404 59.031 100.584 58.0495 100.884 56.8208C101.034 56.2064 101.221 55.5247 101.453 54.8354C101.565 54.4832 101.7 54.1386 101.835 53.7864C101.903 53.6066 101.985 53.4343 102.06 53.262L102.18 52.9998L102.24 52.8724L102.27 52.8499C102.337 52.2505 101.461 54.4832 102.052 52.7525C102.097 52.7525 102.3 52.3854 102.749 51.9059C102.959 51.6736 103.221 51.4264 103.469 51.2316C103.596 51.1342 103.716 51.0518 103.813 50.9993C103.911 50.9394 103.985 50.9169 103.985 50.9169C104 50.9019 103.926 50.9394 103.896 50.9169C103.821 50.9244 103.723 50.9094 103.633 50.872C103.528 50.857 103.394 50.7371 103.379 50.7296C103.349 50.7071 103.319 50.6772 103.296 50.6472C103.206 50.5273 103.214 50.4973 103.199 50.5048C103.199 50.5048 103.169 50.4898 103.169 50.5498C103.169 50.5798 103.191 50.6547 103.266 50.7596C103.289 50.782 103.304 50.812 103.326 50.827C103.364 50.872 103.454 50.9394 103.536 50.9694C103.633 50.9993 103.686 51.0368 103.768 51.0518C103.806 51.0593 103.851 51.0593 103.888 51.0593C103.903 51.0593 103.926 51.0668 103.948 51.0668C103.926 51.0668 103.806 51.0742 103.701 51.0443C103.618 51.0068 103.439 50.9768 103.341 50.8794C103.221 50.7895 103.154 50.6996 103.116 50.6172C103.049 50.4524 103.109 50.5198 103.079 50.6921C103.064 50.8645 103.019 51.0593 102.929 51.3515C102.847 51.6511 102.757 51.9508 102.682 52.2355C102.367 53.3819 102.09 54.4008 101.85 55.2549C101.386 56.9557 101.093 57.9746 100.951 58.0046C100.951 58.3193 100.621 59.5555 100.299 60.7767C99.4526 63.5564 99.3028 63.3915 98.4562 66.1712C98.4112 66.3884 98.3513 66.6731 98.2614 67.0103C98.2389 67.0927 98.2164 67.1826 98.1939 67.2725C98.1565 67.4074 98.119 67.5647 98.0965 67.7071C98.0441 68.0068 98.0066 68.3214 98.0066 68.6811C98.0066 69.0407 98.0366 69.4303 98.1865 69.9398C98.2689 70.1945 98.3887 70.4792 98.621 70.7939C98.8308 71.1011 99.2279 71.4307 99.6774 71.6105C100.142 71.7829 100.547 71.8128 101.011 71.7454C101.468 71.6705 101.843 71.4682 102.12 71.2659C102.652 70.8688 102.929 70.4567 103.124 70.2095C103.941 69.1306 104.87 67.9019 105.896 66.5458C106.93 65.1972 107.994 63.6463 109.163 62.2527C109.163 62.4026 109.687 61.8781 110.339 61.3312C110.983 60.7692 111.77 60.2972 112.167 60.1699C112.145 60.0575 112.699 59.6829 113.501 59.5405C113.598 59.5255 113.718 59.4956 113.8 59.4881C113.875 59.4806 113.89 59.4881 113.815 59.4881C113.755 59.4881 113.523 59.4206 113.403 59.3232C113.238 59.2108 113.081 58.9711 113.044 58.8063C112.976 58.4766 113.036 58.559 112.969 58.6639C112.916 58.7838 112.826 58.9486 112.729 59.076C111.605 60.7318 112.819 59.4056 111.328 61.6758C110.781 61.9006 109.245 64.4704 107.979 67.3624C106.69 70.247 105.529 73.3712 104.787 74.6075C104.757 74.9896 103.648 77.5369 103.191 78.6308C103.199 78.8855 103.483 78.4735 102.922 80.0843C101.873 82.7965 101.58 83.2161 101.243 85.711C100.989 86.0182 100.606 87.7639 100.367 89.2399C100.127 90.7158 99.9771 91.9446 100.127 91.3377C99.8348 92.3566 99.5201 93.7577 99.108 95.3161C98.6959 96.882 98.1565 98.5677 97.4447 100.261C96.0212 103.64 94.1182 107.109 92.8595 109.252C91.361 112.361 92.5897 110.106 91.7581 111.881C91.0763 112.923 90.5443 113.65 88.8886 116.781C87.7647 119.509 86.7832 120.73 86.5809 121.981C84.9401 124.648 87.2852 120.333 85.6744 123.097C85.4796 123.899 84.4756 124.955 83.4791 126.724C81.0966 131.564 83.8238 125.997 85.1124 124.409C82.9247 128.155 82.1081 130.028 80.0327 132.89C80.8943 132.223 78.4368 135.205 78.6017 135.332C79.4783 134.119 78.9089 135.332 80.4972 133.197C77.9948 137.333 78.3844 136.037 77.268 137.902C77.0658 138.262 77.2905 138.104 77.1931 138.419C77.1482 138.584 77.0208 138.854 76.7436 139.401C76.4889 139.948 76.0318 140.749 75.6797 142.135C75.822 142.847 75.9569 143.132 76.1442 142.772C76.339 142.427 76.5638 141.401 77.6576 139.79C77.2306 140.614 76.8784 141.453 76.7061 142.338C77.1856 140.749 77.77 140.217 78.1521 139.723C78.5717 139.236 78.9089 138.839 79.5981 137.722C77.9199 140.052 81.711 134.201 78.5642 138.711C79.4558 137.348 80.8044 135.362 80.9992 135.22C79.4333 137.94 80.2724 136.651 79.8004 137.857C80.7744 136.501 81.696 135.212 82.3253 134.373C82.5501 134.141 82.4902 134.426 83.2394 133.249C83.3368 132.747 83.7563 131.826 85.1649 129.383C85.9441 128.597 83.2394 132.822 84.0036 132.036C85.3897 129.923 86.3936 128.282 86.9705 127.121C86.019 128.739 85.8617 128.574 86.7607 127.001C87.0829 127.061 88.484 124.723 90.0049 122.004C91.5333 119.276 93.1666 116.167 94.1556 114.751C94.3354 113.792 96.7704 109.791 97.1675 108.285C97.16 108.637 98.0666 106.937 98.1115 107.169C99.3328 104.891 100.037 103.16 100.562 101.692C101.086 100.224 101.446 99.0098 101.955 97.6462L101.933 97.6537Z" fill="#9CBFB3"/>
<path d="M90.8887 54.2657C90.8438 54.94 91.2034 52.6923 90.8887 54.2657V54.2657Z" fill="#9CBFB3"/>
<path d="M87.9229 66.478C88.215 65.7213 88.275 65.8711 88.1551 66.493C88.0802 66.8151 88.0352 67.1748 87.7281 67.894C87.5707 68.2387 87.316 68.6807 86.859 69.0778C86.4019 69.4824 85.7501 69.7371 85.1582 69.7671C85.398 69.7146 85.8625 69.6247 86.3495 69.3101C86.844 69.0104 87.2485 68.5009 87.4583 68.0663C87.8704 67.1673 87.9004 66.6728 87.9303 66.478H87.9229Z" fill="#9CBFB3"/>
<path d="M84.1538 51.2089C84.0714 52.4526 84.2512 52.3702 83.457 56.858C83.7417 54.6478 83.5394 54.7227 84.1538 51.2089Z" fill="#9CBFB3"/>
<path d="M89.0827 123.404C87.779 125.592 88.8579 123.509 88.8729 123.285C90.1616 121.089 89.1052 123.18 89.0827 123.404Z" fill="#9CBFB3"/>
<path d="M102.412 64.3876C102.127 65.8636 101.266 67.4819 101.775 65.6838C102.045 64.7398 102.539 63.7283 102.412 64.3876Z" fill="#9CBFB3"/>
<path d="M93.4221 47.1034C93.5944 47.006 93.7892 46.8637 93.8267 46.8637C93.8791 46.8487 93.8267 46.8861 93.7143 46.9086C93.4745 46.9386 93.3172 46.8712 93.3846 46.9086C93.4221 46.9461 93.7368 46.9985 93.8491 46.9611C93.9016 46.9536 93.9016 46.9461 93.8491 46.9835C93.7667 47.0435 93.6693 47.1109 93.5719 47.1858C93.1598 47.4855 92.7403 48.01 92.4331 48.5794C92.1259 49.1413 91.9236 49.7107 91.8262 49.8905C91.6539 50.0479 91.9386 49.1563 92.3956 48.437C92.8377 47.6878 93.4745 47.2608 93.4296 47.1034H93.4221Z" fill="#9CBFB3"/>
<path d="M83.5976 49.6727C83.2679 50.1073 84.0471 49.7327 83.5976 49.6727V49.6727Z" fill="#9CBFB3"/>
<path d="M99.6239 61.4668C99.5864 61.684 99.7887 61.1821 99.6239 61.4668V61.4668Z" fill="#9CBFB3"/>
<path d="M97.4738 57.1874C97.4588 57.562 96.7845 59.937 96.8819 59.9745C96.4249 61.5554 96.4174 61.0609 96.2676 61.2557C96.8745 59.0754 96.9868 58.9556 97.4738 57.1874Z" fill="#9CBFB3"/>
<path d="M83.4712 59.7203C83.194 62.6198 83.2464 63.856 83.2165 64.0957C83.209 64.328 83.164 63.5638 83.2165 62.395C83.2839 60.0499 83.8983 56.094 84.2429 55.5546C83.9807 56.6784 83.6285 59.3756 83.4787 59.7278L83.4712 59.7203Z" fill="#9CBFB3"/>
<path d="M61.3093 42.2342C60.59 42.0544 61.6539 42.0619 61.4216 42.5114C61.4067 42.414 61.2643 42.3466 61.3093 42.2342ZM55.6451 39.7318C55.4878 39.8067 55.5852 39.4396 55.6901 39.477C55.75 39.4995 55.7125 39.6943 55.6451 39.7318ZM62.1034 42.0094C61.9686 42.0544 61.8637 42.2192 61.6839 42.0019C61.8262 42.0319 61.9386 41.8671 62.1034 42.0094ZM50.4904 36.645C50.3855 36.5176 50.5579 36.5101 50.6103 36.4427C50.7152 36.57 50.5429 36.5775 50.4904 36.645ZM51.9664 37.619C51.884 37.6564 51.5543 37.7838 51.8091 37.7089C52.2062 37.7913 52.9329 38.0685 53.2176 38.4581C53.4424 38.4581 53.2176 38.2333 53.4199 38.3008C53.3899 38.3907 53.4798 38.3907 53.5697 38.3907C53.5922 38.5255 53.4873 38.6903 53.6297 38.8027C53.8395 38.7503 54.0567 38.7053 54.259 38.6154C54.0717 38.8851 54.3714 38.6679 54.5213 38.8627C54.4763 38.9301 54.5362 38.9825 54.5213 39.0425C54.3414 39.0275 54.3939 38.6829 54.2216 38.8627C54.3115 38.9676 54.3489 39.0799 54.4388 39.1848C54.791 38.9001 54.6262 39.4171 54.9858 39.1399C54.8509 39.2897 55.218 39.6494 55.3604 39.552C55.0083 39.1474 55.3379 39.522 55.5627 39.3946L55.3979 39.6718C55.9598 39.9266 56.0946 40.0989 56.3868 40.2637C56.5217 39.979 56.1246 40.1738 56.1621 39.949C56.4543 40.024 56.4693 40.1963 56.7764 40.1289C56.7465 40.2787 56.3868 40.2787 56.5741 40.4735C56.7689 40.3162 56.8439 40.2862 56.9338 40.2188C56.8663 40.5185 57.3159 40.6009 57.3159 40.4435C57.3159 40.7882 57.5032 40.8182 57.5631 41.0579C57.7879 41.0055 57.8104 40.8032 57.9228 40.8032C57.9527 40.9605 57.9078 41.0279 57.7579 41.0804C58.0426 41.1478 57.9752 41.1703 58.0951 41.3801C58.1925 41.2752 58.0951 41.1328 58.2149 41.1778C58.3423 41.2527 58.1475 41.3951 58.2449 41.4775C58.5221 41.4999 58.4097 41.2377 58.7544 41.3126C58.7094 41.4325 58.8893 41.4625 58.9792 41.4475C58.9192 41.5374 58.9267 41.6198 58.9342 41.7022C58.8668 41.5599 58.7919 41.5074 58.6345 41.5224C58.6495 41.4625 58.7094 41.3876 58.6345 41.3426L58.5146 41.5449C58.7694 41.5224 58.9867 42.0094 59.3163 41.927C59.3163 41.6947 59.0166 41.912 59.0541 41.6798C59.4512 41.8671 58.9941 41.5973 59.0541 41.4925C59.1815 41.5749 59.3013 41.6198 59.3987 41.6048C59.0766 41.6648 59.5111 41.8371 59.4587 42.0169C59.4062 41.9944 59.3613 41.972 59.3388 42.0394C59.571 42.3241 59.8707 42.0544 59.5486 42.0619C59.7359 42.0469 59.5411 41.8371 59.7284 41.9045C59.9007 42.0993 60.2379 42.414 60.545 42.2117C60.5301 42.4365 60.133 42.2492 60.3053 42.4365C60.7249 42.3616 60.545 42.3541 60.9197 42.2567C60.8597 42.3466 60.8597 42.429 60.8597 42.5039C60.7473 42.4065 60.3877 42.6463 60.635 42.5489C60.7398 42.4814 60.9047 42.7137 60.9946 42.5938C60.8522 42.4365 61.0171 42.2941 61.107 42.2791C61.2343 42.4889 61.3392 42.4964 61.5115 42.5639C61.7288 42.414 61.3242 42.0544 61.6539 42.0769C61.4366 42.2117 61.7438 42.5639 61.9011 42.459C61.8262 42.1368 62.3057 42.1293 62.2683 41.8296C62.1409 41.7097 62.0585 41.8146 61.9536 41.7996C62.006 41.2677 61.9985 41.7172 62.3807 41.5149C62.2907 41.6723 62.2533 42.1218 62.5455 42.0469C62.3357 41.6273 62.538 41.3426 62.508 41.0204C62.6579 41.2602 62.965 40.9605 62.7103 41.0654C62.4556 41.0055 62.493 40.8556 62.3507 40.9081C62.553 41.0804 62.3432 41.2003 62.1709 41.1703C62.5305 40.8556 61.9236 40.983 61.9985 40.7657C62.1184 40.9305 62.4631 40.8331 62.2907 40.6683C62.2458 40.7133 61.9011 40.6983 62.0135 40.5784C62.081 40.6084 62.3956 40.5185 62.2233 40.4286C61.8937 40.511 62.4631 40.3761 62.2308 40.2412C62.1409 40.2937 62.0435 40.3386 61.9386 40.3386C61.9761 40.2487 62.0735 40.1588 61.9911 40.0839C61.9011 40.1513 61.8037 40.1588 61.6689 40.0689C61.8787 39.7543 61.2943 39.6419 61.2493 39.5295C61.2343 39.4995 61.2268 39.477 61.2193 39.4621C61.1969 39.4621 61.1594 39.4621 61.092 39.4396C60.9047 39.3721 60.5675 38.8252 60.1854 38.8926L60.3053 38.6903C60.0281 38.563 60.0506 38.8252 60.0056 38.5105C59.9232 38.8702 59.631 38.1209 59.3912 38.3307C59.5261 38.4056 59.5561 38.503 59.5336 38.6079C59.4287 38.4656 59.2789 38.3382 59.2789 38.1734C59.1515 38.4206 59.0241 38.0011 58.7769 38.1509C58.7919 38.076 58.8068 38.0235 58.8143 37.9936C58.7993 38.0011 58.7769 37.9786 58.7469 37.8512C58.7319 37.7838 58.3723 38.0011 58.3648 37.6264C58.2674 37.7313 58.3648 37.8737 58.2374 37.8362C58.2974 37.6639 57.7579 37.559 58.1325 37.4916C57.8478 37.2743 57.4807 37.3942 57.6006 37.1769C57.5406 37.2443 57.4507 37.2368 57.3683 37.2219C57.226 37.1095 57.3309 36.9447 57.1885 36.8323C57.0012 36.9297 56.7689 36.5925 56.2295 36.5401C56.3419 36.3752 56.1621 36.2703 56.1696 36.128C56.0347 36.3378 55.9448 36.113 55.8249 36.0156C55.6975 35.9931 55.6526 36.2703 55.5102 36.2029C55.7949 35.6185 54.8509 35.9257 54.9184 35.4762C54.8359 35.5736 54.7236 35.4237 54.6936 35.3413C54.6336 35.4162 54.5887 35.5436 54.4913 35.4986C54.4089 35.2964 54.4913 35.1165 54.2291 35.2514C54.3714 34.9292 53.8919 34.9667 53.9294 35.0716C53.8844 34.6295 53.0977 34.6595 52.9928 34.2325C52.7531 34.2175 52.8655 34.3373 52.7156 34.3448C52.7156 34.2025 52.7306 34.0601 52.5358 33.9552C52.2211 34.1201 52.2736 33.8503 51.9814 34.1875C51.8765 33.9852 52.1762 34.0751 52.0263 33.9328C51.8615 34.1051 51.9739 33.7604 51.839 33.7305C51.3146 33.9477 51.9289 33.678 51.869 34.0302C51.6442 33.8803 51.382 34.0676 51.2996 33.7829C51.1722 34.1201 51.1797 33.6331 51.0673 33.8279C51.1198 33.9253 50.9549 34.0377 51.0149 34.2624C50.6627 34.2624 50.9025 34.0152 50.7527 34.0152C50.6927 34.0152 50.5728 34.4422 50.4005 34.0826C50.0559 34.5022 50.0259 34.5696 50.0184 35.0641L49.8686 34.9742C49.9435 35.2739 49.6887 35.641 49.8835 35.641C49.7787 35.4687 50.2132 35.596 49.9735 35.3188C50.0559 35.3788 50.1982 35.4312 50.1608 35.5211C49.8835 35.611 49.9735 35.641 49.7637 35.8433C49.8311 35.9332 49.891 36.0231 49.906 36.1205C49.891 36.1804 49.8311 36.2554 49.906 36.3003C50.0259 36.158 50.1608 36.0531 50.3406 36.0905C50.2731 36.3378 50.0559 36.0905 49.9809 36.3453C50.0858 36.4726 50.1683 36.5625 50.2806 36.5251C50.1832 36.4651 50.2956 36.2778 50.4005 36.3228C50.1008 36.8473 50.91 36.7873 50.8725 37.2593C51.0748 37.0346 51.1647 37.4466 51.4195 37.2144C51.3221 37.3342 51.4195 37.4167 51.3296 37.5365C51.5693 37.7613 51.9364 37.3867 51.9814 37.6489L51.9664 37.619Z" fill="#9CBFB3"/>
<path d="M61.1963 39.4615C61.1589 39.3341 61.2563 39.4465 61.1963 39.4615V39.4615Z" fill="#9CBFB3"/>
<path d="M61.7671 40.054C61.7296 39.9116 62.0143 39.7243 62.0518 39.9491C61.9693 40.0165 61.842 39.9641 61.7671 40.054Z" fill="#9CBFB3"/>
<path d="M62.0953 42.0168C61.9605 42.0617 61.8556 42.2266 61.6758 42.0093C61.8181 42.0393 61.9305 41.8744 62.0953 42.0168Z" fill="#9CBFB3"/>
<path d="M50.4824 36.6447C50.3776 36.5173 50.5499 36.5098 50.6023 36.4424C50.7072 36.5698 50.5349 36.5772 50.4824 36.6447Z" fill="#9CBFB3"/>
<path d="M55.6373 39.7389C55.4799 39.8138 55.5773 39.4467 55.6822 39.4841C55.7422 39.5066 55.7047 39.7014 55.6373 39.7389Z" fill="#9CBFB3"/>
<path d="M60.7331 39.1479C60.5383 38.8706 61.0328 39.0505 61.0028 39.2153C60.8979 39.4475 60.8904 38.9081 60.7331 39.1479Z" fill="#9CBFB3"/>
<path d="M62.6508 41.425C62.3811 41.7847 62.7782 41.2003 62.6508 41.425V41.425Z" fill="#9CBFB3"/>
<path d="M58.7988 37.9934C58.8213 37.911 58.8213 37.9859 58.7988 37.9934V37.9934Z" fill="#9CBFB3"/>
<path d="M56.9629 40.6241C57.0303 40.5566 57.1427 40.669 57.1952 40.5791C57.2776 40.639 57.1877 40.7439 57.1502 40.8338C57.0153 40.7814 57.0603 40.6915 56.9629 40.6315V40.6241Z" fill="#9CBFB3"/>
<path d="M61.3102 42.2339C60.5909 42.0541 61.6548 42.0616 61.4225 42.5111C61.4076 42.4137 61.2652 42.3463 61.3102 42.2339Z" fill="#9CBFB3"/>
<path d="M46.564 57.3237C44.7134 57.2113 47.1034 57.0914 47.1858 57.6159C47.021 57.511 46.6014 57.4436 46.564 57.3237ZM31.1449 55.3158C30.8901 55.4207 30.6729 55.0161 30.9651 55.0461C31.1149 55.061 31.2573 55.2708 31.1449 55.3158ZM47.995 56.9641C47.7852 57.039 47.7627 57.2338 47.0734 57.0165C47.4256 57.0315 47.448 56.8367 47.995 56.9641ZM16.2278 53.2104C15.8457 53.1056 16.2128 53.0606 16.2577 52.9707C16.6398 53.0756 16.2727 53.1205 16.2278 53.2104ZM20.6107 53.8473C20.4759 53.8997 19.9065 54.1095 20.371 53.9747C21.33 53.9747 23.263 54.0945 24.3344 54.4392C24.8364 54.3942 24.0872 54.2069 24.5891 54.2369C24.6191 54.3418 24.8289 54.3193 25.0312 54.3043C25.2335 54.4392 25.196 54.6265 25.6455 54.7164C26.0501 54.619 26.4622 54.5291 26.8143 54.4017C26.702 54.7164 27.1215 54.4317 27.6759 54.6115C27.661 54.6939 27.8408 54.7314 27.8707 54.7988C27.4512 54.8138 27.174 54.4542 26.9942 54.6639C27.3088 54.7539 27.5261 54.8662 27.8483 54.9561C28.2978 54.5965 28.5151 55.1584 28.9946 54.8063C28.8672 54.9936 30.0885 55.3008 30.2833 55.1734C29.0395 54.8138 30.1933 55.1435 30.538 54.9711L30.4855 55.2858C32.0065 55.4656 32.5085 55.623 33.3251 55.7503C33.3101 55.4282 32.6433 55.6979 32.4785 55.4506C33.2127 55.4806 33.43 55.6604 34.0369 55.548C34.1418 55.7129 33.3401 55.7653 33.9695 55.9451C34.2167 55.7503 34.3441 55.7054 34.4714 55.623C34.6512 55.9451 35.7376 55.9676 35.5653 55.8103C35.9549 56.1774 36.3895 56.1849 36.809 56.4321C37.2436 56.3497 37.0712 56.1324 37.3185 56.1174C37.5508 56.2748 37.5358 56.3647 37.2586 56.4321C37.9553 56.4696 37.843 56.4996 38.3374 56.7093C38.4498 56.5895 38.0527 56.4471 38.3824 56.4771C38.742 56.5445 38.4648 56.7168 38.772 56.7918C39.4013 56.7843 38.8619 56.5145 39.716 56.5595C39.746 56.6944 40.1805 56.7018 40.3678 56.6794C40.3379 56.7843 40.4353 56.8742 40.5402 56.9566C40.233 56.8067 40.0082 56.7618 39.6711 56.7918C39.6336 56.7243 39.6935 56.6344 39.4838 56.597L39.4388 56.8292C39.9633 56.7693 40.9897 57.2787 41.634 57.1589C41.3793 56.9116 40.9522 57.1739 40.7799 56.9191C41.8663 57.0765 40.5626 56.8367 40.5926 56.7168C40.9672 56.7918 41.2744 56.8292 41.4767 56.7992C40.8249 56.8966 41.9862 57.039 42.0686 57.2413C41.9337 57.2188 41.8064 57.2038 41.8363 57.2787C42.668 57.5709 43.0351 57.2488 42.3308 57.2787C42.7429 57.2488 42.0611 57.039 42.5481 57.0914C43.1475 57.2862 44.2863 57.6009 44.7583 57.3612C45.0056 57.6159 43.8518 57.4361 44.4811 57.6309C45.3577 57.511 44.9306 57.526 45.6649 57.3761C45.6349 57.481 45.7323 57.5709 45.8372 57.6534C45.4626 57.556 44.9231 57.8557 45.3727 57.7208C45.53 57.6384 46.2118 57.8781 46.2718 57.7358C45.7323 57.5709 45.9421 57.3986 46.1144 57.3761C46.6763 57.5934 46.9311 57.5934 47.4181 57.6459C47.6878 57.4436 46.3242 57.0989 47.0809 57.084C46.7737 57.2638 47.9275 57.6084 48.1373 57.4661C47.5379 57.1289 48.5419 57.039 48.0699 56.7093C47.6428 56.597 47.6129 56.7243 47.3806 56.7318C46.8187 56.1399 47.3806 56.6344 47.9126 56.3497C47.9126 56.5295 48.4295 57.0315 48.939 56.8892C47.95 56.4771 48.0175 56.1324 47.5754 55.7878C48.1598 56.0126 48.3921 55.6305 48.0249 55.8028C47.4555 55.7878 47.3506 55.623 47.1334 55.6979C47.7327 55.8477 47.463 56.02 47.0659 56.0126C47.4331 55.6155 46.3392 55.8477 46.2418 55.6005C46.6763 55.7578 47.2682 55.6005 46.7288 55.4506C46.6913 55.5106 45.9571 55.5405 46.0545 55.3982C46.2343 55.4207 46.7737 55.2708 46.3242 55.2034C45.7398 55.3383 46.7513 55.1135 46.1369 55.0011C46.0095 55.0685 45.8672 55.1285 45.6499 55.1509C45.6349 55.0535 45.7323 54.9337 45.4776 54.8737C45.3652 54.9561 45.1629 54.9786 44.7883 54.8962C44.9007 54.5366 43.5221 54.4766 43.2973 54.3643C43.2374 54.3343 43.1924 54.3043 43.1625 54.2893C43.125 54.2968 43.0351 54.2968 42.8628 54.2818C42.3608 54.2219 41.0197 53.6675 40.233 53.7799C40.248 53.6974 40.263 53.6225 40.2779 53.5476C39.5212 53.4427 39.8734 53.7199 39.4013 53.3903C39.6261 53.7874 38.1277 53.0156 37.8355 53.2704C38.2176 53.3378 38.3899 53.4352 38.4648 53.5476C38.0677 53.4052 37.5957 53.2854 37.4084 53.113C37.4009 53.3903 36.6367 52.9632 36.2696 53.158C36.2246 53.0681 36.1947 53.0156 36.1872 52.9857C36.1572 52.9932 36.0823 52.9782 35.8725 52.8433C35.7601 52.7684 35.2057 53.0531 34.7711 52.656C34.6587 52.7759 35.0633 52.9183 34.7337 52.8958C34.6812 52.701 33.3551 52.671 34.1118 52.5436C33.2352 52.3563 32.5459 52.5436 32.5684 52.2889C32.5085 52.3713 32.3062 52.3713 32.1039 52.3788C31.6543 52.2814 31.7068 52.0941 31.2573 51.9967C30.9501 52.1316 30.0435 51.8169 28.7923 51.8543C28.8597 51.6595 28.3278 51.5846 28.1779 51.4348C28.1255 51.682 27.6535 51.4573 27.2789 51.3823C26.9642 51.3823 27.2039 51.682 26.7919 51.6296C26.7394 50.9628 25.0087 51.4722 24.6266 50.9927C24.5517 51.1051 24.1321 50.9778 23.9598 50.8953C23.9148 50.9852 23.9598 51.1276 23.705 51.1051C23.2855 50.9103 23.248 50.7155 22.8285 50.9028C22.7685 50.5357 21.7571 50.6856 21.9444 50.783C21.33 50.3409 19.6068 50.5432 18.8725 50.1386C18.3181 50.1761 18.7152 50.281 18.4005 50.3184C18.2207 50.1761 18.1008 50.0262 17.5464 49.9663C17.0519 50.2135 16.8421 49.9288 16.6024 50.3334C16.1229 50.1611 16.9021 50.1686 16.4076 50.0637C16.2577 50.281 16.0779 49.8989 15.7483 49.9064C14.8492 50.2585 15.8831 49.8239 16.1603 50.1986C15.4785 50.1012 15.1264 50.3559 14.6019 50.0937C14.7218 50.4608 14.1674 49.9813 14.1374 50.1986C14.3622 50.281 14.1374 50.4383 14.5345 50.6481C13.7553 50.7455 13.9951 50.4308 13.6579 50.4683C13.5305 50.4833 13.7553 50.9403 12.9686 50.6331C12.7139 51.1426 12.7289 51.2175 13.2983 51.7195L12.8562 51.667C13.3732 51.9443 13.2533 52.3863 13.6729 52.3264C13.2309 52.184 14.3397 52.1915 13.4856 51.9817C13.7478 52.0192 14.1149 52.0417 14.1374 52.1391C13.6279 52.2964 13.8677 52.3114 13.6429 52.5661C13.8977 52.6335 14.1299 52.7085 14.2873 52.7984C14.3322 52.8658 14.2723 52.9557 14.4896 52.9782C14.587 52.8059 14.7593 52.6635 15.1938 52.656C15.3287 52.9183 14.572 52.7384 14.7068 53.0007C15.0889 53.0981 15.3811 53.173 15.5834 53.1056C15.2987 53.0681 15.3287 52.8508 15.6134 52.8658C15.5759 53.4727 17.2692 53.1955 17.7412 53.69C17.921 53.4127 18.6028 53.8098 18.88 53.5101C18.8126 53.6525 19.1048 53.7199 19.0598 53.8548C19.839 54.0271 20.2286 53.5626 20.6257 53.8173L20.6107 53.8473Z" fill="#9CBFB3"/>
<path d="M43.1475 54.3113C42.9227 54.1765 43.2599 54.2889 43.1475 54.3113V54.3113Z" fill="#9CBFB3"/>
<path d="M45.0127 54.8883C44.788 54.7384 45.1701 54.4987 45.4997 54.7384C45.4023 54.8283 45.0877 54.7834 45.0127 54.8883Z" fill="#9CBFB3"/>
<path d="M48.0016 56.9712C47.7918 57.0461 47.7694 57.2409 47.0801 57.0236C47.4322 57.0386 47.4547 56.8438 48.0016 56.9712Z" fill="#9CBFB3"/>
<path d="M16.2287 53.2105C15.8466 53.1056 16.2137 53.0606 16.2587 52.9707C16.6408 53.0756 16.2736 53.1205 16.2287 53.2105Z" fill="#9CBFB3"/>
<path d="M31.1459 55.3231C30.8912 55.428 30.6739 55.0234 30.9661 55.0533C31.1159 55.0683 31.2583 55.2781 31.1459 55.3231Z" fill="#9CBFB3"/>
<path d="M41.7699 54.0122C41.0207 53.735 42.3244 53.8773 42.4442 54.0571C42.4667 54.3194 41.8449 53.7425 41.7699 54.0122Z" fill="#9CBFB3"/>
<path d="M48.3775 56.23C48.2876 56.672 48.355 55.9602 48.3775 56.23V56.23Z" fill="#9CBFB3"/>
<path d="M36.1573 53.0005C36.1198 52.9106 36.1948 52.9855 36.1573 53.0005V53.0005Z" fill="#9CBFB3"/>
<path d="M35.0703 56.058C35.1377 55.9831 35.5124 56.0805 35.5348 55.9756C35.7896 56.028 35.6922 56.1479 35.7146 56.2528C35.355 56.2153 35.355 56.1104 35.0703 56.058Z" fill="#9CBFB3"/>
<path d="M46.5642 57.3229C44.7136 57.2105 47.1036 57.0906 47.186 57.6151C47.0212 57.5102 46.6016 57.4428 46.5642 57.3229Z" fill="#9CBFB3"/>
<path d="M35.0169 82.1974C33.8631 82.4896 35.3091 81.8527 35.444 82.3397C35.3241 82.2723 35.0544 82.3097 35.0169 82.1974ZM25.1121 83.0964C24.9623 83.2388 24.79 82.8717 24.9773 82.8567C25.0747 82.8492 25.1796 83.0365 25.1121 83.0964ZM35.8336 81.5231C35.7137 81.6429 35.7362 81.8377 35.2791 81.7853C35.4964 81.7179 35.4814 81.5231 35.8336 81.5231ZM15.4696 82.6094C15.2223 82.5345 15.4621 82.4596 15.4921 82.3697C15.7393 82.4446 15.4996 82.5195 15.4696 82.6094ZM18.2942 82.8941C18.2118 82.9616 17.8446 83.2163 18.1443 83.044C18.7662 82.9541 20.0024 82.8866 20.7067 83.1114C21.0289 83.0065 20.5344 82.9091 20.8565 82.8792C20.879 82.9766 21.0139 82.9316 21.1412 82.8941C21.2761 83.0065 21.2611 83.2013 21.5533 83.2313C21.808 83.0889 22.0703 82.9466 22.2801 82.7818C22.2276 83.1114 22.4749 82.7818 22.842 82.8866C22.842 82.9691 22.9544 82.984 22.9768 83.0515C22.7071 83.1189 22.5123 82.7967 22.4074 83.029C22.6172 83.0814 22.7596 83.1639 22.9694 83.2088C23.2316 82.7967 23.4114 83.3287 23.6886 82.9091C23.6212 83.1114 24.4229 83.2463 24.5352 83.0889C23.7186 82.9016 24.4753 83.074 24.6851 82.8567V83.1788C25.6591 83.1264 25.9887 83.2088 26.5207 83.2088C26.4757 82.8941 26.0786 83.2613 25.9513 83.044C26.4158 82.9691 26.5731 83.1039 26.9477 82.8941C27.0302 83.0365 26.5282 83.2238 26.9477 83.2987C27.0826 83.0665 27.165 82.999 27.2325 82.9016C27.3823 83.1938 28.0641 83.0365 27.9442 82.9016C28.2289 83.1938 28.5061 83.1264 28.7983 83.3062C29.0681 83.1489 28.9332 82.9616 29.083 82.9016C29.2479 83.0215 29.2479 83.1039 29.083 83.2238C29.5251 83.1339 29.4577 83.1863 29.7948 83.2987C29.8473 83.1564 29.585 83.0964 29.7948 83.059C30.0271 83.059 29.8772 83.2762 30.0795 83.2987C30.4766 83.1714 30.102 83.0065 30.6414 82.8941C30.6789 83.0215 30.9561 82.9466 31.0685 82.8866C31.0685 82.999 31.1359 83.059 31.2108 83.1264C31.0011 83.0365 30.8512 83.044 30.6414 83.1339C30.6115 83.074 30.6414 82.9766 30.4991 82.9766V83.2163C30.8212 83.059 31.5405 83.3587 31.9226 83.1114C31.7278 82.9166 31.4956 83.2613 31.3532 83.044C32.05 82.984 31.2034 83.0065 31.2108 82.8866C31.4581 82.8866 31.6529 82.8642 31.7728 82.7967C31.3832 83.0215 32.1249 82.9391 32.2073 83.1114C32.1174 83.1189 32.0425 83.1264 32.065 83.1938C32.6269 83.3062 32.8067 82.9166 32.3721 83.0964C32.6269 82.984 32.1699 82.9166 32.477 82.8642C32.8816 82.9316 33.6383 83.0065 33.8856 82.6619C34.0804 82.8567 33.3312 82.9316 33.7582 82.9915C34.2827 82.6844 34.0204 82.7892 34.4475 82.4821C34.4475 82.5944 34.5224 82.6544 34.5973 82.7143C34.3501 82.6993 34.0654 83.1114 34.3201 82.8866C34.4025 82.7743 34.8671 82.8567 34.8821 82.7068C34.5224 82.6619 34.6198 82.4521 34.7247 82.3922C35.1068 82.4821 35.2642 82.4221 35.5713 82.3547C35.6987 82.1 34.8071 82.0775 35.2717 81.8902C35.1143 82.1374 35.8785 82.2049 35.9834 82.0175C35.5564 81.8302 36.1557 81.5081 35.8111 81.2983C35.5339 81.2908 35.5414 81.4182 35.399 81.4781C34.957 81.0361 35.3765 81.3882 35.6613 80.9836C35.6987 81.1634 36.0958 81.5231 36.3805 81.2683C35.7062 81.096 35.6837 80.7439 35.3616 80.5116C35.7512 80.6015 35.8261 80.1744 35.6388 80.4217C35.2941 80.5416 35.1967 80.3992 35.0843 80.5266C35.4739 80.5266 35.3391 80.7588 35.0993 80.8488C35.2567 80.3767 34.6348 80.8487 34.5299 80.6315C34.8221 80.6914 35.1518 80.3992 34.7996 80.3842C34.7847 80.4517 34.3501 80.6465 34.3876 80.4816C34.5 80.4666 34.7996 80.1969 34.5149 80.2344C34.1853 80.4966 34.7622 80.0546 34.3726 80.077C34.3126 80.1744 34.2302 80.2644 34.1029 80.3243C34.0804 80.2344 34.1178 80.0995 33.953 80.092C33.9006 80.1969 33.7807 80.2644 33.5409 80.2644C33.5559 79.8897 32.7093 80.1145 32.5595 80.0546C32.522 80.0396 32.4845 80.0171 32.4621 80.0096C32.4396 80.0246 32.3871 80.0471 32.2747 80.0621C31.9601 80.107 31.0685 79.8298 30.604 80.092C30.604 80.0096 30.604 79.9272 30.604 79.8523C30.132 79.8897 30.3792 80.0995 30.0495 79.8523C30.2368 80.2044 29.2254 79.7174 29.0755 80.0171C29.3153 80.0171 29.4352 80.077 29.4951 80.1744C29.2329 80.1145 28.9332 80.077 28.7983 79.9347C28.8208 80.2119 28.3113 79.9197 28.1016 80.1744C28.0641 80.0995 28.0416 80.0471 28.0341 80.0171C28.0191 80.0321 27.9667 80.0171 27.8243 79.9272C27.7494 79.8748 27.4347 80.2419 27.1276 79.9272C27.0751 80.0621 27.3299 80.137 27.1276 80.167C27.0751 79.9871 26.2585 80.167 26.7155 79.9197C26.1611 79.8748 25.749 80.152 25.7415 79.9047C25.7115 79.9946 25.5842 80.0246 25.4568 80.0621C25.1721 80.0321 25.1871 79.8373 24.9024 79.8148C24.7225 79.9871 24.1381 79.8148 23.3664 80.0096C23.3964 79.8073 23.0593 79.7998 22.9619 79.6725C22.9469 79.9197 22.6397 79.7624 22.3999 79.7324C22.2051 79.7774 22.37 80.0396 22.1077 80.0396C22.0403 79.3878 20.9914 80.092 20.7292 79.6575C20.6842 79.7774 20.422 79.6949 20.3096 79.635C20.2796 79.7249 20.3246 79.8598 20.1598 79.8673C19.89 79.7174 19.8601 79.5301 19.6053 79.7549C19.5604 79.3953 18.931 79.65 19.0509 79.7249C18.6613 79.3428 17.5899 79.7099 17.1254 79.3578C16.7807 79.4402 17.028 79.5076 16.8332 79.5751C16.7208 79.4477 16.6459 79.3053 16.2937 79.2979C15.9791 79.5751 15.8517 79.3053 15.7019 79.7324C15.4022 79.59 15.8892 79.5526 15.582 79.4777C15.4846 79.7024 15.3722 79.3353 15.1699 79.3653C14.6005 79.7774 15.2598 79.2754 15.4246 79.6275C14.9976 79.5826 14.7728 79.8598 14.4432 79.6275C14.5106 79.9871 14.1734 79.5376 14.151 79.7624C14.2933 79.8373 14.151 80.0021 14.3907 80.1894C13.8962 80.3318 14.0536 80.0021 13.8438 80.0621C13.7614 80.0845 13.8962 80.5266 13.4017 80.2644C13.2294 80.7888 13.2294 80.8637 13.5815 81.3283L13.3043 81.3058C13.6265 81.553 13.5441 82.0026 13.8138 81.9201C13.5366 81.8003 14.2409 81.7478 13.7014 81.5905C13.8662 81.6205 14.106 81.613 14.1135 81.7104C13.7838 81.8977 13.9412 81.8977 13.7913 82.1674C13.9562 82.2198 14.106 82.2798 14.2034 82.3697C14.2259 82.4371 14.1959 82.527 14.3308 82.542C14.3907 82.3622 14.5031 82.2123 14.7878 82.1824C14.8702 82.4371 14.3832 82.3023 14.4731 82.557C14.7204 82.6319 14.9077 82.6844 15.0425 82.6019C14.8552 82.587 14.8852 82.3697 15.065 82.3622C15.035 82.9691 16.1289 82.587 16.4361 83.029C16.5485 82.7443 16.9905 83.0814 17.1703 82.7593C17.1254 82.9091 17.3202 82.9466 17.2902 83.0889C17.7997 83.1938 18.0394 82.6918 18.3017 82.9166L18.2942 82.8941Z" fill="#9CBFB3"/>
<path d="M32.4693 79.9872C32.3119 79.9048 32.5367 79.9423 32.4693 79.9872V79.9872Z" fill="#9CBFB3"/>
<path d="M33.6838 80.1594C33.5265 80.062 33.7213 79.7473 33.9536 79.9046C33.9086 80.0095 33.7138 80.0395 33.6838 80.1594Z" fill="#9CBFB3"/>
<path d="M35.8337 81.5234C35.7138 81.6433 35.7363 81.8381 35.2793 81.7857C35.4966 81.7182 35.4816 81.5234 35.8337 81.5234Z" fill="#9CBFB3"/>
<path d="M15.4779 82.6089C15.2307 82.534 15.4704 82.459 15.5004 82.3691C15.7476 82.4441 15.5079 82.519 15.4779 82.6089Z" fill="#9CBFB3"/>
<path d="M25.1113 83.0967C24.9614 83.239 24.7891 82.8719 24.9764 82.8569C25.0738 82.8494 25.1787 83.0367 25.1113 83.0967Z" fill="#9CBFB3"/>
<path d="M31.5845 79.9721C31.0975 79.8447 31.9066 79.7323 32.004 79.8822C32.049 80.1294 31.5994 79.6874 31.5845 79.9721Z" fill="#9CBFB3"/>
<path d="M35.9383 80.7135C35.8784 80.4588 35.9608 81.1631 35.9383 80.7135V80.7135Z" fill="#9CBFB3"/>
<path d="M28.0349 80.0099C28.0049 79.9275 28.0574 79.9874 28.0349 80.0099V80.0099Z" fill="#9CBFB3"/>
<path d="M27.666 83.2091C27.7035 83.1192 27.9507 83.1566 27.9507 83.0518C28.1156 83.0593 28.0706 83.1941 28.0931 83.2915C27.8608 83.314 27.8458 83.2166 27.666 83.2091Z" fill="#9CBFB3"/>
<path d="M35.0178 82.1974C33.864 82.4896 35.31 81.8527 35.4449 82.3397C35.325 82.2723 35.0553 82.3097 35.0178 82.1974Z" fill="#9CBFB3"/>
<path d="M125.016 58.0203C126.477 57.7431 124.634 58.365 124.484 57.8705C124.627 57.9379 124.971 57.9079 125.016 58.0203ZM137.431 56.9864C137.618 56.8365 137.843 57.1962 137.611 57.2261C137.491 57.2411 137.348 57.0538 137.431 56.9864ZM123.967 58.6796C124.117 58.5598 124.102 58.365 124.672 58.4249C124.394 58.4923 124.409 58.6796 123.967 58.6796ZM149.501 56.7616C149.816 56.8141 149.531 56.904 149.501 57.0014C149.186 56.9489 149.471 56.859 149.501 56.7616ZM145.95 56.7466C146.047 56.6717 146.474 56.387 146.122 56.5818C145.358 56.7242 143.822 56.889 142.93 56.7242C142.541 56.844 143.155 56.919 142.758 56.9639C142.72 56.8665 142.563 56.919 142.406 56.9639C142.226 56.859 142.233 56.6717 141.866 56.6567C141.559 56.8141 141.244 56.9714 140.99 57.1512C141.035 56.8216 140.742 57.1662 140.278 57.0838C140.278 57.0014 140.136 56.9939 140.098 56.9265C140.428 56.844 140.698 57.1587 140.81 56.9115C140.548 56.874 140.36 56.7991 140.098 56.7616C139.791 57.1962 139.544 56.6717 139.214 57.0988C139.289 56.8965 138.278 56.7991 138.143 56.9564C139.177 57.0988 138.218 56.9714 137.97 57.1962C137.97 57.0913 137.97 56.9789 137.97 56.874C136.749 56.9639 136.33 56.8965 135.663 56.919C135.723 57.2336 136.21 56.8515 136.374 57.0613C135.798 57.1587 135.588 57.0238 135.138 57.2486C135.026 57.1063 135.655 56.904 135.138 56.844C134.973 57.0838 134.876 57.1437 134.794 57.2486C134.599 56.9564 133.745 57.1362 133.91 57.2636C133.542 56.9789 133.198 57.0463 132.838 56.8815C132.508 57.0463 132.681 57.2261 132.493 57.2861C132.284 57.1737 132.284 57.0913 132.493 56.9639C131.939 57.0613 132.029 57.0089 131.602 56.8965C131.534 57.0388 131.872 57.0988 131.602 57.1362C131.31 57.1362 131.497 56.919 131.242 56.904C130.748 57.0388 131.22 57.1962 130.538 57.316C130.493 57.1887 130.148 57.2711 130.006 57.3235C130.006 57.2112 129.916 57.1512 129.826 57.0838C130.088 57.1737 130.276 57.1662 130.538 57.0688C130.575 57.1287 130.545 57.2261 130.718 57.2261C130.718 57.1437 130.718 57.0688 130.718 56.9864C130.313 57.1437 129.422 56.8515 128.942 57.0988C129.182 57.2936 129.474 56.9414 129.654 57.1662C128.777 57.2261 129.841 57.2037 129.834 57.3235C129.527 57.3235 129.279 57.3535 129.122 57.4134C129.616 57.1887 128.687 57.2786 128.583 57.1063C128.687 57.0988 128.792 57.0913 128.755 57.0239C128.051 56.9115 127.826 57.3011 128.365 57.1212C128.051 57.2336 128.612 57.3011 128.23 57.3535C127.728 57.2861 126.777 57.2112 126.455 57.5483C126.215 57.3535 127.151 57.2861 126.627 57.2261C125.96 57.5258 126.29 57.4284 125.75 57.7206C125.75 57.6082 125.661 57.5483 125.571 57.4809C125.878 57.4959 126.245 57.0913 125.923 57.316C125.818 57.4284 125.241 57.3385 125.218 57.4884C125.668 57.5333 125.541 57.7506 125.398 57.803C124.919 57.7056 124.724 57.7656 124.334 57.8255C124.162 58.0803 125.286 58.1177 124.702 58.2975C124.911 58.0578 123.945 57.9679 123.81 58.1552C124.342 58.35 123.57 58.6647 123.997 58.8744C124.349 58.8894 124.349 58.7621 124.529 58.7021C125.069 59.1591 124.552 58.792 124.185 59.1891C124.147 59.0093 123.66 58.6347 123.293 58.8819C124.132 59.0692 124.147 59.4214 124.552 59.6611C124.057 59.5637 123.945 59.9908 124.2 59.751C124.642 59.6387 124.754 59.781 124.911 59.6536C124.424 59.6387 124.597 59.4139 124.911 59.3315C124.702 59.8035 125.503 59.339 125.623 59.5562C125.256 59.4888 124.829 59.781 125.271 59.8035C125.286 59.7361 125.855 59.5487 125.803 59.7136C125.661 59.7286 125.271 59.9908 125.631 59.9608C126.058 59.7061 125.316 60.1406 125.81 60.1182C125.893 60.0208 125.998 59.9308 126.163 59.8709C126.192 59.9608 126.14 60.0957 126.342 60.1107C126.41 60.0058 126.567 59.9458 126.874 59.9383C126.844 60.313 127.931 60.0882 128.118 60.1556C128.17 60.1706 128.208 60.1931 128.238 60.2006C128.268 60.1856 128.335 60.1631 128.47 60.1481C128.867 60.1032 130.006 60.3804 130.598 60.1107C130.598 60.1931 130.598 60.2755 130.598 60.3504C131.205 60.3055 130.883 60.1032 131.31 60.3354C131.07 59.9908 132.366 60.4553 132.546 60.1556C132.239 60.1631 132.089 60.1032 132.014 60.0058C132.344 60.0657 132.733 60.0957 132.906 60.2305C132.868 59.9533 133.527 60.2305 133.79 59.9758C133.842 60.0507 133.872 60.1032 133.88 60.1331C133.902 60.1182 133.962 60.1256 134.142 60.2156C134.239 60.268 134.629 59.8859 135.026 60.2006C135.093 60.0582 134.756 59.9983 135.026 59.9608C135.101 60.1406 136.135 59.9308 135.565 60.1931C136.277 60.2156 136.787 59.9159 136.809 60.1706C136.846 60.0807 137.004 60.0432 137.161 60.0058C137.521 60.0208 137.513 60.2156 137.873 60.2305C138.09 60.0432 138.847 60.2006 139.821 59.9533C139.791 60.1556 140.225 60.1406 140.36 60.2605C140.368 60.0058 140.765 60.1481 141.072 60.1706C141.319 60.1182 141.095 59.8634 141.424 59.8409C141.552 60.4853 142.84 59.7136 143.207 60.1256C143.252 59.9983 143.597 60.0657 143.739 60.1182C143.769 60.0208 143.702 59.8934 143.912 59.8784C144.271 60.0058 144.324 60.1931 144.623 59.9458C144.713 60.298 145.493 59.9983 145.335 59.9309C145.875 60.2755 147.201 59.826 147.823 60.1256C148.25 60.0058 147.928 59.9608 148.175 59.8784C148.332 59.9908 148.445 60.1256 148.887 60.1032C149.246 59.7885 149.448 60.0507 149.591 59.6087C149.988 59.7211 149.374 59.811 149.771 59.8484C149.868 59.6162 150.048 59.9683 150.303 59.9159C150.969 59.4439 150.205 60.0133 149.943 59.6836C150.49 59.6836 150.737 59.3914 151.187 59.5787C151.052 59.2341 151.539 59.6387 151.539 59.4139C151.352 59.3614 151.516 59.1741 151.179 59.0168C151.779 58.822 151.629 59.1591 151.891 59.0842C151.988 59.0543 151.764 58.6272 152.423 58.8295C152.565 58.29 152.55 58.2151 152.048 57.7956C152.168 57.7956 152.281 57.7956 152.4 57.7956C151.966 57.5858 152.011 57.1362 151.681 57.2486C152.048 57.3385 151.172 57.4659 151.861 57.5633C151.651 57.5558 151.359 57.5858 151.329 57.4959C151.711 57.2711 151.524 57.2936 151.674 57.0089C151.464 56.9714 151.269 56.9265 151.142 56.859C151.104 56.7991 151.134 56.7017 150.962 56.7017C150.909 56.889 150.782 57.0463 150.437 57.1138C150.303 56.8665 150.924 56.9489 150.782 56.7092C150.467 56.6567 150.228 56.6343 150.07 56.7242C150.303 56.7242 150.303 56.9414 150.07 56.9639C150.033 56.357 148.722 56.8515 148.287 56.4395C148.175 56.7391 147.59 56.4395 147.403 56.7766C147.441 56.6268 147.201 56.6043 147.216 56.4619C146.571 56.402 146.324 56.919 145.98 56.7242L145.95 56.7466Z" fill="#9CBFB3"/>
<path d="M128.201 60.2529C128.119 60.2979 128.403 60.3428 128.201 60.2529V60.2529Z" fill="#9CBFB3"/>
<path d="M126.657 60.0732C126.859 60.1706 126.604 60.4853 126.305 60.3205C126.365 60.2156 126.612 60.1856 126.657 60.0732Z" fill="#9CBFB3"/>
<path d="M123.967 58.679C124.117 58.5591 124.102 58.3643 124.671 58.4243C124.394 58.4917 124.409 58.679 123.967 58.679Z" fill="#9CBFB3"/>
<path d="M149.5 56.7687C149.815 56.8211 149.53 56.911 149.5 57.0084C149.186 56.956 149.47 56.8661 149.5 56.7687Z" fill="#9CBFB3"/>
<path d="M137.431 56.9934C137.618 56.8436 137.843 57.2032 137.611 57.2332C137.491 57.2481 137.348 57.0608 137.431 56.9934Z" fill="#9CBFB3"/>
<path d="M129.323 60.2686C129.945 60.3884 128.911 60.5158 128.791 60.3585C128.732 60.1112 129.308 60.5533 129.323 60.2686Z" fill="#9CBFB3"/>
<path d="M123.803 59.4888C123.796 59.0393 123.871 59.7436 123.803 59.4888V59.4888Z" fill="#9CBFB3"/>
<path d="M133.85 60.1787C133.82 60.2012 133.887 60.2611 133.85 60.1787V60.1787Z" fill="#9CBFB3"/>
<path d="M134.233 56.9713C134.188 57.0612 133.881 57.0312 133.881 57.1361C133.671 57.1361 133.731 56.9938 133.701 56.8964C133.986 56.8664 134.008 56.9638 134.233 56.9638V56.9713Z" fill="#9CBFB3"/>
<path d="M125.016 58.02C126.477 57.7427 124.634 58.3646 124.484 57.8701C124.627 57.9375 124.971 57.9076 125.016 58.02Z" fill="#9CBFB3"/>
<path d="M128.072 84.0409C128.904 83.8162 127.848 84.3631 127.78 83.8761C127.863 83.951 128.05 83.9286 128.072 84.0409ZM135.123 83.8312C135.25 83.7038 135.325 84.0784 135.19 84.0784C135.123 84.0784 135.07 83.8836 135.123 83.8312ZM127.458 84.6703C127.548 84.5579 127.54 84.3631 127.863 84.438C127.705 84.4905 127.705 84.6853 127.458 84.6703ZM141.851 85.0974C142.008 85.1948 141.828 85.2397 141.798 85.3296C141.641 85.2322 141.821 85.1873 141.851 85.0974ZM139.903 84.5804C139.97 84.5205 140.27 84.2957 140.037 84.4455C139.588 84.483 138.696 84.4455 138.239 84.1758C138 84.2507 138.329 84.3931 138.097 84.3931C138.097 84.2957 137.992 84.3257 137.902 84.3556C137.82 84.2357 137.857 84.0484 137.662 83.9885C137.46 84.1084 137.258 84.2283 137.086 84.3781C137.168 84.0559 136.943 84.3706 136.703 84.2357C136.718 84.1533 136.636 84.1309 136.628 84.0634C136.823 84.0185 136.921 84.3556 137.026 84.1309C136.883 84.0634 136.793 83.9735 136.651 83.9061C136.411 84.2957 136.351 83.7562 136.104 84.1458C136.179 83.951 135.632 83.7562 135.527 83.8986C136.082 84.1458 135.565 83.9211 135.392 84.1234L135.437 83.8087C134.74 83.7862 134.516 83.6813 134.134 83.6364C134.134 83.951 134.448 83.6139 134.516 83.8462C134.179 83.8836 134.081 83.7413 133.796 83.9211C133.751 83.7712 134.126 83.6289 133.841 83.524C133.721 83.7488 133.654 83.8012 133.594 83.8986C133.519 83.5914 133.017 83.7038 133.092 83.8462C132.92 83.5315 132.718 83.5839 132.53 83.3891C132.328 83.5315 132.403 83.7188 132.29 83.7712C132.186 83.6439 132.193 83.5614 132.32 83.4491C131.998 83.509 132.051 83.464 131.826 83.3217C131.773 83.4566 131.953 83.539 131.803 83.5614C131.639 83.5465 131.766 83.3367 131.624 83.3067C131.331 83.4041 131.586 83.5914 131.189 83.6738C131.174 83.5465 130.972 83.6064 130.889 83.6514C130.904 83.539 130.852 83.4715 130.807 83.4041C130.949 83.509 131.054 83.5165 131.212 83.4341C131.227 83.494 131.204 83.5914 131.301 83.5989L131.324 83.3592C131.084 83.494 130.605 83.1494 130.313 83.3666C130.432 83.5689 130.627 83.2468 130.71 83.4715C130.208 83.479 130.814 83.5165 130.8 83.6364C130.627 83.6214 130.485 83.6364 130.395 83.6888C130.687 83.494 130.163 83.524 130.118 83.3517C130.178 83.3517 130.238 83.3517 130.223 83.2767C129.833 83.1269 129.676 83.509 129.998 83.3592C129.811 83.4566 130.125 83.5539 129.908 83.5839C129.631 83.494 129.099 83.3666 128.896 83.6963C128.769 83.494 129.301 83.464 129.009 83.3816C128.619 83.6514 128.807 83.5689 128.484 83.8462C128.492 83.7338 128.447 83.6663 128.394 83.5989C128.567 83.6289 128.799 83.2393 128.604 83.4491C128.537 83.5614 128.215 83.4491 128.2 83.5914C128.447 83.6588 128.365 83.8611 128.29 83.9136C128.027 83.7937 127.915 83.8536 127.69 83.8986C127.585 84.1458 128.207 84.2208 127.878 84.3856C128.005 84.1533 127.465 84.0335 127.383 84.2133C127.675 84.4305 127.233 84.7153 127.465 84.94C127.66 84.97 127.66 84.8351 127.765 84.7827C128.05 85.2547 127.765 84.8801 127.555 85.2622C127.54 85.0824 127.286 84.6928 127.068 84.9325C127.525 85.1498 127.525 85.5019 127.735 85.7492C127.465 85.6368 127.398 86.0564 127.54 85.8241C127.788 85.7267 127.84 85.8691 127.93 85.7567C127.66 85.7267 127.765 85.5019 127.937 85.4345C127.803 85.8915 128.26 85.4645 128.32 85.6892C128.125 85.6068 127.878 85.884 128.117 85.9215C128.132 85.8616 128.447 85.6892 128.409 85.8541C128.335 85.8541 128.11 86.1088 128.305 86.0938C128.552 85.8541 128.125 86.2587 128.394 86.2587C128.447 86.1688 128.507 86.0788 128.597 86.0264C128.612 86.1238 128.574 86.2512 128.687 86.2662C128.732 86.1688 128.822 86.1088 128.986 86.1163C128.949 86.4909 129.548 86.3186 129.646 86.3935C129.668 86.416 129.691 86.431 129.706 86.446C129.721 86.431 129.758 86.416 129.833 86.4085C130.05 86.3785 130.642 86.7232 130.987 86.4834C130.987 86.5658 130.972 86.6408 130.972 86.7232C131.301 86.7232 131.152 86.4909 131.354 86.7532C131.257 86.3935 131.908 86.9405 132.036 86.6558C131.871 86.6408 131.796 86.5733 131.766 86.4684C131.938 86.5509 132.141 86.6033 132.223 86.7532C132.231 86.4759 132.56 86.8056 132.725 86.5583C132.74 86.6408 132.755 86.6857 132.755 86.7157C132.77 86.7007 132.8 86.7157 132.89 86.8131C132.935 86.8655 133.19 86.5284 133.369 86.8655C133.422 86.7307 133.249 86.6408 133.399 86.6258C133.414 86.8131 133.999 86.6857 133.662 86.8955C134.036 86.9779 134.351 86.7307 134.328 86.9779C134.358 86.888 134.448 86.8655 134.538 86.8431C134.733 86.888 134.695 87.0828 134.89 87.1278C135.033 86.9704 135.407 87.1877 135.969 87.0453C135.924 87.2401 136.149 87.2701 136.201 87.405C136.246 87.1577 136.434 87.3375 136.591 87.39C136.733 87.36 136.658 87.0903 136.831 87.1053C136.786 87.7571 137.61 87.1427 137.722 87.5848C137.767 87.4649 137.94 87.5698 138.007 87.6372C138.037 87.5473 138.03 87.4125 138.149 87.42C138.314 87.5848 138.307 87.7796 138.509 87.5698C138.487 87.9219 138.959 87.7271 138.884 87.6447C139.093 88.0493 139.888 87.7796 140.15 88.1617C140.405 88.1092 140.24 88.0193 140.39 87.9669C140.442 88.1018 140.472 88.2441 140.712 88.2816C140.974 88.0343 141.019 88.3115 141.199 87.907C141.379 88.0718 141.034 88.0718 141.236 88.1617C141.341 87.9519 141.356 88.3115 141.498 88.304C141.963 87.9444 141.424 88.3865 141.371 88.0268C141.656 88.1092 141.858 87.8545 142.045 88.1092C142.06 87.7496 142.218 88.2216 142.27 88.0044C142.188 87.9219 142.323 87.7646 142.18 87.5698C142.547 87.4724 142.375 87.7796 142.54 87.7421C142.6 87.7271 142.592 87.2851 142.885 87.5848C143.102 87.0903 143.117 87.0154 142.959 86.5284L143.154 86.5808C142.974 86.3111 143.117 85.884 142.914 85.9365C143.087 86.0788 142.585 86.0639 142.929 86.2736C142.817 86.2362 142.652 86.2212 142.66 86.1238C142.922 85.9665 142.817 85.959 142.974 85.7042C142.87 85.6368 142.772 85.5619 142.72 85.472C142.72 85.4045 142.757 85.3221 142.66 85.2922C142.585 85.4645 142.472 85.5993 142.27 85.6068C142.255 85.3521 142.577 85.5244 142.562 85.2697C142.405 85.1723 142.278 85.1123 142.173 85.1723C142.3 85.2023 142.248 85.4195 142.113 85.4045C142.24 84.8127 141.401 85.0899 141.259 84.6253C141.131 84.8951 140.877 84.5279 140.697 84.8276C140.749 84.6853 140.622 84.6253 140.667 84.4905C140.322 84.3406 140.075 84.8201 139.925 84.5804H139.903Z" fill="#9CBFB3"/>
<path d="M129.69 86.4082C129.645 86.4532 129.795 86.5056 129.69 86.4082V86.4082Z" fill="#9CBFB3"/>
<path d="M128.874 86.1611C128.979 86.266 128.822 86.5732 128.672 86.3934C128.709 86.2885 128.844 86.2735 128.874 86.1611Z" fill="#9CBFB3"/>
<path d="M127.457 84.6708C127.547 84.5585 127.539 84.3637 127.862 84.4386C127.704 84.491 127.704 84.6858 127.457 84.6708Z" fill="#9CBFB3"/>
<path d="M141.851 85.0977C142.008 85.1951 141.828 85.24 141.798 85.3299C141.641 85.2325 141.821 85.1876 141.851 85.0977Z" fill="#9CBFB3"/>
<path d="M135.123 83.8311C135.25 83.7037 135.325 84.0783 135.19 84.0783C135.123 84.0783 135.07 83.8835 135.123 83.8311Z" fill="#9CBFB3"/>
<path d="M130.299 86.4834C130.628 86.6407 130.059 86.7007 130.006 86.5433C129.991 86.2886 130.269 86.7681 130.299 86.4834Z" fill="#9CBFB3"/>
<path d="M127.346 85.4643C127.353 85.0148 127.376 85.7265 127.346 85.4643V85.4643Z" fill="#9CBFB3"/>
<path d="M132.741 86.6855C132.726 86.708 132.756 86.768 132.741 86.6855V86.6855Z" fill="#9CBFB3"/>
<path d="M133.332 83.5313C133.295 83.6137 133.13 83.5613 133.115 83.6662C133.002 83.6437 133.047 83.5163 133.04 83.4189C133.205 83.4189 133.205 83.5089 133.332 83.5313Z" fill="#9CBFB3"/>
<path d="M128.071 84.0408C128.903 83.816 127.847 84.363 127.779 83.876C127.862 83.9509 128.049 83.9284 128.071 84.0408Z" fill="#9CBFB3"/>
<path d="M118.999 101.258C120.318 102.12 118.467 101.228 118.699 100.756C118.759 100.913 119.036 101.146 118.999 101.258ZM129.668 108.87C129.908 108.87 129.893 109.297 129.683 109.177C129.571 109.11 129.563 108.878 129.668 108.87ZM117.74 100.943C117.943 100.973 118.062 100.823 118.452 101.288C118.197 101.131 118.077 101.28 117.74 100.943ZM140.494 115.411C140.764 115.613 140.449 115.553 140.382 115.621C140.112 115.418 140.427 115.478 140.494 115.411ZM137.258 113.568C137.385 113.56 137.917 113.538 137.497 113.523C136.733 113.253 135.272 112.541 134.575 111.897C134.163 111.777 134.673 112.189 134.291 112.002C134.306 111.897 134.141 111.852 133.976 111.807C133.871 111.62 133.976 111.462 133.669 111.238C133.309 111.2 132.95 111.14 132.627 111.14C132.852 110.893 132.403 111.013 132.043 110.668C132.088 110.601 131.968 110.503 131.976 110.436C132.305 110.563 132.365 110.975 132.597 110.841C132.388 110.653 132.268 110.481 132.058 110.301C131.548 110.481 131.631 109.897 131.106 110.054C131.286 109.934 130.485 109.245 130.275 109.297C131.076 110.039 130.327 109.357 129.983 109.387L130.162 109.125C129.076 108.443 128.754 108.128 128.192 107.724C128.05 108.016 128.694 108.016 128.701 108.293C128.155 108.008 128.072 107.769 127.555 107.649C127.555 107.469 128.192 107.709 127.795 107.327C127.51 107.409 127.39 107.402 127.255 107.424C127.27 107.079 126.454 106.66 126.506 106.862C126.386 106.398 126.057 106.233 125.869 105.858C125.495 105.768 125.517 106.023 125.33 105.948C125.233 105.723 125.285 105.656 125.525 105.693C125.015 105.401 125.12 105.416 124.85 105.049C124.708 105.109 124.933 105.386 124.701 105.236C124.461 105.042 124.761 104.997 124.558 104.817C124.079 104.584 124.348 105.027 123.727 104.659C123.772 104.532 123.449 104.352 123.3 104.3C123.374 104.217 123.344 104.105 123.307 103.993C123.457 104.24 123.607 104.367 123.876 104.472C123.869 104.547 123.779 104.599 123.921 104.712L124.071 104.525C123.644 104.375 123.135 103.536 122.595 103.393C122.655 103.7 123.12 103.648 123.112 103.933C122.378 103.378 123.232 104.09 123.15 104.172C122.902 103.963 122.693 103.813 122.528 103.753C123.067 103.918 122.266 103.348 122.311 103.146C122.4 103.213 122.483 103.281 122.505 103.206C122.033 102.629 121.599 102.756 122.138 103.004C121.816 102.869 122.213 103.318 121.876 103.079C121.531 102.674 120.842 101.955 120.37 101.962C120.325 101.648 121.082 102.269 120.722 101.85C120.01 101.588 120.333 101.752 119.711 101.58C119.793 101.505 119.763 101.393 119.733 101.28C119.958 101.52 120.52 101.483 120.115 101.415C119.958 101.415 119.576 100.943 119.456 101.033C119.763 101.393 119.523 101.453 119.374 101.393C119.074 100.981 118.887 100.868 118.557 100.621C118.25 100.674 119.066 101.535 118.497 101.228C118.819 101.205 118.16 100.434 117.928 100.464C118.19 100.996 117.388 100.644 117.568 101.116C117.823 101.393 117.913 101.295 118.092 101.393C118.182 102.12 118.047 101.475 117.486 101.483C117.583 101.325 117.478 100.696 117.021 100.599C117.53 101.363 117.291 101.625 117.433 102.097C117.118 101.655 116.736 101.872 117.103 101.895C117.523 102.15 117.508 102.337 117.71 102.367C117.343 101.985 117.643 101.962 117.928 102.135C117.433 102.314 118.377 102.584 118.325 102.831C118.085 102.517 117.553 102.404 117.883 102.749C117.943 102.719 118.512 102.996 118.362 103.079C118.242 102.981 117.755 102.884 118.055 103.131C118.572 103.266 117.68 103.026 118.092 103.378C118.227 103.378 118.37 103.378 118.534 103.461C118.497 103.551 118.355 103.603 118.512 103.768C118.639 103.745 118.804 103.813 119.044 104.038C118.767 104.292 119.786 104.914 119.898 105.101C119.928 105.154 119.95 105.191 119.965 105.221C120.003 105.229 120.063 105.266 120.19 105.356C120.535 105.618 121.292 106.622 121.951 106.847L121.801 107.034C122.333 107.424 122.206 107.042 122.4 107.521C122.43 107.087 123.202 108.353 123.554 108.241C123.292 108.038 123.21 107.881 123.202 107.754C123.434 108.031 123.749 108.316 123.809 108.54C123.951 108.301 124.333 108.967 124.716 108.937C124.716 109.035 124.708 109.087 124.701 109.117C124.723 109.117 124.775 109.17 124.873 109.365C124.925 109.469 125.495 109.432 125.645 109.941C125.787 109.874 125.54 109.604 125.787 109.747C125.742 109.934 126.761 110.451 126.109 110.286C126.701 110.781 127.338 110.856 127.203 111.073C127.285 111.02 127.45 111.095 127.608 111.163C127.915 111.41 127.787 111.56 128.095 111.807C128.394 111.792 128.971 112.391 129.983 112.796C129.848 112.946 130.237 113.193 130.29 113.38C130.44 113.178 130.717 113.538 130.979 113.733C131.226 113.837 131.166 113.493 131.474 113.673C131.234 114.294 132.83 114.399 132.935 114.961C133.039 114.886 133.324 115.134 133.429 115.261C133.504 115.194 133.519 115.051 133.721 115.156C133.983 115.463 133.931 115.658 134.343 115.621C134.246 115.973 135.115 116.16 135.01 116.01C135.34 116.602 136.801 116.947 137.25 117.531C137.715 117.658 137.43 117.449 137.7 117.501C137.79 117.681 137.835 117.861 138.269 118.078C138.764 117.988 138.831 118.318 139.176 118.003C139.498 118.303 138.868 118.071 139.236 118.303C139.438 118.145 139.445 118.55 139.715 118.64C140.577 118.565 139.573 118.677 139.483 118.25C140 118.535 140.374 118.393 140.719 118.782C140.749 118.408 141.034 119.007 141.131 118.805C140.974 118.662 141.214 118.58 140.966 118.28C141.633 118.4 141.326 118.625 141.618 118.685C141.73 118.707 141.701 118.213 142.24 118.715C142.622 118.303 142.637 118.228 142.352 117.606L142.689 117.771C142.367 117.374 142.622 116.992 142.255 116.932C142.555 117.186 141.671 116.879 142.285 117.299C142.09 117.194 141.798 117.082 141.813 116.984C142.277 116.969 142.09 116.894 142.36 116.714C142.18 116.58 142.015 116.452 141.925 116.325C141.918 116.25 141.993 116.183 141.828 116.1C141.693 116.235 141.498 116.332 141.146 116.212C141.131 115.928 141.671 116.31 141.656 116.025C141.386 115.83 141.184 115.688 140.989 115.688C141.206 115.8 141.101 115.995 140.876 115.905C141.131 115.351 139.678 115.149 139.483 114.549C139.236 114.751 138.846 114.19 138.516 114.392C138.629 114.279 138.419 114.137 138.509 114.025C137.954 113.643 137.475 113.95 137.258 113.598V113.568Z" fill="#9CBFB3"/>
<path d="M119.965 105.207C119.867 105.184 120.07 105.416 119.965 105.207V105.207Z" fill="#9CBFB3"/>
<path d="M118.858 103.947C118.948 104.165 118.536 104.21 118.408 103.865C118.528 103.835 118.745 104 118.858 103.947Z" fill="#9CBFB3"/>
<path d="M117.74 100.943C117.943 100.973 118.062 100.823 118.452 101.288C118.197 101.13 118.077 101.28 117.74 100.943Z" fill="#9CBFB3"/>
<path d="M140.493 115.418C140.763 115.62 140.448 115.56 140.381 115.628C140.111 115.425 140.426 115.485 140.493 115.418Z" fill="#9CBFB3"/>
<path d="M129.668 108.87C129.908 108.87 129.893 109.297 129.683 109.177C129.571 109.11 129.563 108.878 129.668 108.87Z" fill="#9CBFB3"/>
<path d="M120.871 106.023C121.306 106.562 120.377 105.91 120.377 105.715C120.497 105.483 120.669 106.225 120.871 106.023Z" fill="#9CBFB3"/>
<path d="M117.051 101.393C116.917 101.625 117.366 101.063 117.051 101.393V101.393Z" fill="#9CBFB3"/>
<path d="M124.692 109.095C124.655 109.095 124.677 109.185 124.692 109.095V109.095Z" fill="#9CBFB3"/>
<path d="M127.009 106.832C126.919 106.877 126.679 106.652 126.619 106.735C126.455 106.593 126.582 106.525 126.619 106.428C126.874 106.593 126.829 106.682 127.009 106.832Z" fill="#9CBFB3"/>
<path d="M118.998 101.258C120.317 102.119 118.466 101.228 118.698 100.756C118.758 100.913 119.035 101.145 118.998 101.258Z" fill="#9CBFB3"/>
</g>
<defs>
<clipPath id="clip0_340_15667">
<rect width="139.701" height="109.245" fill="white" transform="translate(12.7598 33.7148)"/>
</clipPath>
</defs>
</svg>
